<svg xmlns="http://www.w3.org/2000/svg" width="800" height="871" viewBox="0 0 800 871"><path fill="#1a5990" stroke="#1a5990" d="m569.5 11-11 12 5.5-6.5 3.5-4.5zM585.5 12l1.5.5-3.5 1.5L573 24.5l-30 39 1.5-.5q2.3-.7 1.5 1.5l-1.5 1.5q-1.7-3.7-3.5-.5l2 3.5 4-1-1 3.5 2 .5 1.5 4q3.8-1.2 2.5 2.5l-2 1 1-2-1.5-.5-1.5.5q2.3-1.2-.5-2.5l-.5 4 2 .5-2 1-.5-1.5-2.5 3.5 2 1q-.7-2.2 1.5-1.5l2.5.5-1.5 2.5-2.5-1v2q4.1-1.3 3 2-4.1-1.7-3 2.5l.5 1.5-3-1-.5 1.5.5 1.5-2.5 1.5 2 5-1.5-.5q-2.2-.7-1.5 1.5l-.5 1.5q2.3-.7 1.5 1.5l1.5-.5q2.6-.7 1.5 2-3-1-2 2 2.7-1.1 2 1.5l-3 3 1 1-.5 1.5-1.5-.5q1.3 6.3-2.5 7.5l-1.5-.5-1 3 1.5 3.5.5-5q2.7-1.1 2 1.5l-2.5 4.5-1.5.5v5.5l2 .5-3 .5-1 2.5 3 1-3 1 3 2-3 2 2 3.5-2-.5q2.2-1.3-.5-2.5l-1 3-.5-2.5.5-1.5-2.5.5 1 2-2 2v4l-2 5.5q3-1 2 2-2.7 1.1-2-1.5h-1q-1.7 4.8 2.5 3.5l2.5 1.5-3.5 5.5-1.5-.5-1 6 1.5-.5h1.5v4l-2 .5 2 4.5q-3.3-1.1-2 3l3 .5-4 2 1 4-.5 1.5q2.3.8 1.5-1.5h1v2.5q-3-1.2-2 2.5l.5 1.5-1.5-.5v2.5q3-1 2 2l-5 1q1.1 2.7-1.5 2v1h18l10.5 8.5v1.5h2q-1.1 2.7 1.5 2l1 2-2 1q-2.8-8.2-10-12l-2-1-17-1-15 14H466l2-6.5 1-11 5-23 11-27 17-23 3-10 8-17 18-29Q554.5 42 582.5 13zM542 79v2l3-1zm0 4q-2 3 1 2zm3 4-2 2h2zm-4 21q-2 3 1 2zm-3 9-1 3h1zm-6 24-2 2h2zm-7 22v4q2 1 1-2h2zm0 17-1 3h1zm-3 7v1h2zm-4 19-1 2h-2q1 3-1 2l-2 3-6 6-8 1v1h8l5-4q-1-3 2-2l5-6q2-2 0-3ZM588.5 13l2.5 1.5 11 22h-1L590 14z" opacity=".996"/><path fill="#1a5990" stroke="#1a5990" d="M584.5 26h2l4.5 4.5 11 29h-1l-7-20-6.5-11.5-3-1-1.5.5zM551.5 27l-6 7zM543 35l2 .5L531.5 50l4.5-5.5zM695.5 43q2.3-.7 1.5 1.5l-2.5.5-17 13 3-4zM696.5 50l.5 3.5h-1zM534.5 51l-1 2zM529.5 52l-3 4zM530.5 55l-1 2zM695.5 55l.5 3.5h-1zM528.5 58l-5 6zM675.5 58l-3 4-24 19L638 91.5l1.5 3.5 3.5 1.5-1.5.5-6-4-3 1 2-3 3-1zM694.5 60l.5 2.5h-1zM602.5 61q8.1 19.4 12.5 42.5l-3.5 1.5v-1l2.5-1.5-5-20-7-19zM693.5 66l.5 2.5h-1zM551.5 70l1.5 4.5-3-2zM692.5 70l.5 3.5h-1zM690.5 81l.5 2.5h-1zM689.5 86l.5 2.5h-1zM688.5 91l.5 3.5h-1zM687.5 97l.5 2.5h-1zM548.5 101l.5 3.5h-1zM686.5 103l.5 2.5h-1zM601.5 108l1.5.5-3.5 1.5v-1zM685.5 108l.5 5.5h-1zM593.5 112l-1 2-10 5-27 19 4-5zM489.5 118l.5 2.5-16 25-6.5 13.5-.5-1.5 4-8.5q-2.7-1.1-2 1.5l-3.5 5.5-.5-1.5 8-12-.5-1.5q1.7 2.8 3.5-1.5l-.5-1.5-1.5.5 4-2-.5-1.5-1.5.5 9.5-11.5 1.5.5-1-2 2-1-.5-1.5q2.5.7 2-2ZM536.5 131l1 2zM463.5 159l.5 1.5-2 1zM665.5 161l12.5.5-12.5.5zM655.5 163l2.5.5-2.5.5zM687.5 165l4 5zM463.5 166l.5 1.5-4 10-3.5 15.5-1.5-.5-7.5 32.5-1.5-3.5 3.5-16.5 1 2 .5-3.5-1-2.5 2-.5-1-4 2.5-8.5 1.5.5-1-5h1l.5 3.5 3.5-12.5zM459.5 168l.5 1.5-2.5 6.5-.5-2.5zM528 169l2 .5-2 1zM640.5 169v2l1.5.5-4 .5q-1.1-2.7 1.5-2zM692.5 171l2.5 4.5h-1zM675.5 178l.5 15.5h-1l-1-12zM689.5 193l4.5 2.5-6.5.5zM523.5 217q10.6-1.2 15.5 2v2q2.7-1.1 2 1.5l6.5 8.5 28-1 1-1h47l1 1 17.5.5-17.5.5-1-1h-43l-1 1-33 1-5-5h-4l-4.5 2.5 3 4q-3.5 1.5-1 3-.7 2.6 2 1.5l.5-2 .5 2.5-3 3 1 1q.8 2.3-1.5 1.5l.5 1.5q-.8 3 3 1.5v2.5l-1.5 2.5-2-1v2q-2.2.8-1.5-1.5h-1l-1 3.5-2 .5 2.5.5 1.5-.5-4.5 9.5q-3.3-1.1-2.5 1.5h-1l-.5-1.5-1.5.5-.5-1.5-1.5 3.5 1 2h-1q.8-2.2-1.5-1.5l-5.5 2.5.5 1.5-3-2-1 1h-9l-2.5 1.5q11.8-.8 19.5 2.5 9.7 4.3 15.5 12.5l3 6-2-1-8.5-11.5q-8.6-7.9-26-7-10.4 2.1-17 8L451 258.5v-2l7-10 5-14.5h14.5l1-1h30zm6.5 33v1h2zM730.5 223l4 5zM445.5 225l1.5 2.5-1.5 3.5-2.5-1.5zM738.5 230l2.5 3.5-2-1zM645.5 231l12.5.5-12.5.5zM671.5 231l3.5.5-2.5 1.5h-12v-1h10zM444.5 232l.5 1.5-1.5 2.5-.5-1.5zM442.5 237l.5 1.5-1.5 2.5-.5-1.5zM440.5 242l-1 2zM668.5 242l4.5.5-10.5 4.5-15 1v-1l12-1 7-2z" opacity=".996"/><path fill="#1a5990" stroke="#1a5990" d="m600.5 243 4.5.5-8.5 1.5v-1zM591.5 245l3.5.5-3.5.5zM587.5 246l2.5.5-2.5.5zM582.5 247l2.5.5-2.5.5zM638.5 248l7.5.5-16.5 1.5v-1h8zM623.5 250l4.5.5-4.5.5zM566.5 251l4.5.5-7.5 1.5v-1zM617.5 251l3.5.5-3.5.5zM611.5 252l4.5.5-9.5 1.5v-1zM560.5 253l-1 2-2.5-.5zM435.5 254l-1 2zM601.5 254l3.5.5-3.5.5zM734.5 254l-4 5zM596.5 255l3.5.5-3.5.5zM550.5 256l2.5.5-2.5.5zM591.5 256l2.5.5-2.5.5zM671.5 256l1.5.5-16.5 5.5v-1zM547.5 257l.5 2q-4.7-.7-6 3.5-1.9 5.4 1.5 4.5l3 1 6-2v1l-5 2h-5q-3.3-2-2.5-7 2.7 1.1 2-1.5zM586.5 257l3.5.5-3.5.5zM581.5 258l3.5.5-11.5 2.5v-1zM728.5 259l-1 2-1.5-.5zM569.5 261l2.5.5-2.5.5zM565.5 262l2.5.5-2.5.5zM561.5 263l2.5.5-9.5 2.5v-1zM649.5 263l2.5.5-5.5 1.5v-1zM722.5 264l1.5 2.5h-1zM636.5 267l2.5.5-4.5 1.5v-1zM442 268l14.5 8 22.5 15.5q-5.7 5.8-5 18l4 10 9.5 10.5 11 5h14l9-4 5.5-4.5q5.9-5.3 7-14.5 3.3 1.3 2-3.5h1l.5 3.5 1.5-7.5-2-9h1l2 11-2 10 7 5-1.5-.5-8.5-4q-1 3 2 2v3h1.5l7.5 6.5-2.5-1.5-6-3-6.5 5.5q.8 2.3-1.5 1.5l-13 11h-28l-3-1H482l-.5 2h-9l-3.5-2.5 13-2-10.5-.5q-1.5 2.5-3-1l-19-18q-2.8-3.7-9-4h-5L414 295.5q-.7-2.2 1.5-1.5l12-9 11.5-11.5zm85 60q-8 8-21 10h7v2h4l10-8 1-3zm-42 1q-2 3 1 2zm-21 1 1 2h1zm22 1v3l-11 2q-5 1-6-2l-3-1 4 4h28l-7-3zM721.5 270l-4 5-9 5v-1q8.5-2.5 13-9ZM624.5 271l2.5.5-4.5 1.5v-1zM616.5 274l1.5.5-8.5 3.5v-1zM587.5 277l1.5.5-6.5 3.5 1-2zM411 278l2 .5-2 1zM606.5 278l1.5.5-17.5 7.5v-1zM580.5 281l.5 1.5q-2.7.8-2 5l3 2-1.5.5-2.5-1-1-3.5zM698.5 282l2.5.5-2.5.5zM693.5 283l3.5.5-3.5.5zM687.5 284l3.5.5-3.5.5zM678.5 285l4.5.5-4.5.5z" opacity=".996"/><path fill="#1a5990" stroke="#1a5990" d="M500.5 286q16.7-.7 22.5 9.5l3 6v9q-2.7 9.8-10.5 14.5-4.5 4.5-15 3l-13.5-8.5q-2.8-2.7-2-9l-2-2v-5q2.1-7.4 7.5-11.5l3-2zm-.5 5-4 2q-7 4-9 13v4l3 7q5 4 13 6 8 0 13-4l6-8q1-9-2-12-5-10-20-8Zm24 11-1 10-3 4 1 1 4-7zm-4 15-2 2h2zm-4 3-1 2 2-1zM587.5 286l1.5.5-3.5 1.5v-1zM669.5 286l4.5.5-4.5.5zM664.5 287l2.5.5-2.5.5zM655.5 291l-3.5 4.5-4.5 11.5-.5-2.5q1.8-9.2 8.5-13.5Z" opacity=".996"/><path fill="#1a5990" stroke="#1a5990" d="m499.5 296 2.5.5-2.5.5zM501.5 299q4.5-1 5.5 1.5-.7 2.3 1.5 1.5l1.5.5q-.7-2.2 1.5-1.5l4.5 6.5-1 2 1 2-8.5 6.5h-7l-5.5-3-3-5.5v-5l1-2.5 2.5 1 .5-1.5-.5-1.5h2zm2.5 1-1 3 3-1zm11 10-1 1q-3-1-2 2l-5 2h-4l1 2q8 0 11-5zM404.5 300l3 1 26 23 10 1 6.5 5 5.5 7 10 9 3 1h17l.5 2h1.5l6 2 1.5-.5q.8 2.3-1.5 1.5v1q2.6-.8 1.5 2.5l.5 1.5-2.5-1 1.5 3q3.8-.7 4.5 1.5l-3 .5.5 2 1.5-.5q.9 3-3.5 1.5l-2.5 1v4q3.3-1.1 2 3-2.7-1.1-2 1.5l-.5 1.5 2.5.5-4 3 1 2.5h-2q1.1 2.7-1.5 2v2l-1.5.5 2 .5-1 6q-2.7-1.1-2 1.5l-.5 1.5q2.3-.7 1.5 1.5l1 2.5q-3.7-1.2-2 4l2 .5-3 4 1.5-.5 1.5.5-1 3.5 2 .5-3 .5q-1.1 2.7 1.5 2v1l-1.5.5 3 1 .5 5.5.5-16-2-.5 2-.5 1-8.5 12.5-15.5 2-1h55v1h-54l-5.5 4.5-9 12v94l-1 1v71l-1 5 1 3-1.5 3.5-1-4h-2q-2.6-.8-1.5 2.5l-3-1-.5 1.5-.5-1.5.5-1.5-3-1q-1.1 2.8-4.5 2l-1-2.5 1-2-1-1v-26l-1-1 1-2-1-4v-74L447.5 435 434 422.5v-47l1.5-.5 5.5-5.5v-8l-4.5-6.5q-3.7-3.3-12-2h-2L377 310.5l1.5-1.5 14-3zm81.5 87-1 3h1zM664.5 306l-2.5 3.5-.5 1.5-.5-1.5zM646.5 308l.5 2.5h-1zM645.5 313l.5 14.5h-1z" opacity=".996"/><path fill="#1a5990" stroke="#1a5990" d="m367.5 315 7.5 4.5q-.7 2.3 1.5 1.5l34 33 8.5 6.5q-2.7 2.3-2 8l4.5 5.5 4.5 1 1 2.5-1 2 1 3-1 5 1 1v34q-.9 7.9 4.5 9.5l28 27h1.5l3 4.5v41l-1 1v36l-1 1v18l-1 2 1 5-1 2 1 2-3 4.5q-2.7-1.1-2 1.5l-7 5.5-70-177.5q-5.8-11.2-15.5-18.5-6.4-5.1-16-7h-17l-1-1-11.5-.5 8.5-1.5 1.5-1.5q-.7-2.2 1.5-1.5h2q3 .7 1.5-3h2.5l3-2 2.5 1v-2q4.1 1.3 3-2l-3-1.5 1.5.5q4.4 1.5 3.5-1.5l-2.5-3.5-2.5-.5 1.5-1.5 2.5 1.5-1-2h2l1-7-1-2 3-1-2-4 1.5-2.5-1.5-.5 1-3q-.7-2.2 1.5-1.5l3 2-.5-1.5.5-2.5 2 3 3.5-1q-1.1-2.7 1.5-2l3-4 .5 2 2-.5-3-6 2.5 1.5 9-1v2l4 1 1.5-1.5-3.5-3.5-4.5-3.5V319h-2q1.1-2.7-1.5-2zM352 339l-2 2h2zm2 1q-2 3 1 2zm98 210q-2 3 1 2zM659.5 316l1.5 3.5-2 1z" opacity=".996"/><path fill="#1a5990" stroke="#1a5990" d="m354.5 318 5.5 3.5-3-1-1.5 2.5q-1.2-2.3-2.5.5l2 3-2 .5q1 3-2 2l-.5-2-.5 3q-2.7 1.1-2-1.5l-3-1.5-.5-3-.5 2-4-2.5 9.5-3.5h2zm-7.5 6q0 4 2 1zM546.5 322l15.5 11.5-2.5-1.5-11-7zM281.5 324l1.5.5-4 2 2 1-8 3.5q-1.5-3.7 1.5-3zM359.5 327l-1 2zM267.5 330l-1 2zM646.5 331l.5 2.5h-1zM536.5 332l-3 4zM551.5 332l1 2zM264.5 334l1.5.5-2.5 1.5zM563.5 334l2 3zM555.5 335l1 2zM558.5 337l1 2zM567.5 337l5.5 4.5-2.5-1.5zM562.5 340l1 2zM565.5 342l1 2zM574.5 342l2 3zM648.5 342l.5 2.5h-1zM568.5 344l2 3zM578.5 345l1 1h17l2.5 2.5-2.5-1.5h-17zM572.5 347l1 2zM649.5 347l.5 2.5h-1zM343.5 348h1.5q-1.5 3.7 1.5 3v1l-2.5-1.5zM600.5 349l3 4zM650.5 352l.5 3.5h-1zM606.5 354l8 9zM229.5 356l-1 2-2 1 1-2zM224.5 359l-1 2zM651.5 359l.5 2.5h-1zM14.5 360l.5 2.5h-1zM219.5 362q2.6-.7 1.5 2l-5 2-1.5 3-10.5 8-1.5 3-13.5 12.5-9.5 11.5-1.5-.5 3.5-4.5-1.5-.5 2-.5v-2.5l6-7.5 3-.5q-2.7-1.8 1.5-3.5 2.3.8 1.5-1.5l11-7.5q-1.1-2.7 1.5-2l3-4h2q2.3.8 1.5-1.5l3-1.5.5-2 1.5.5zM495.5 365l1 2q-2.8.7-1-2ZM618.5 365l7 8zM652.5 365l.5 3.5h-1zM496.5 369l.5 1.5-1.5 3.5-.5-2.5zM627.5 373l4.5 5.5h-1zM653.5 373l.5 7.5h-1zM630.5 380l1.5.5v36l1.5 1.5H652l.5-4 .5 3.5-2 3.5-22-1v-38.5zM561.5 381l5.5 7.5v103l1 1V522l3.5 1 2-1h2l11.5-10.5 2-3 9-8v-45l20.5-20.5q3.8.8 4.5-1.5l.5-3.5.5 4.5-25 23v45l-4.5 5.5-19 18H567v-20.5l-1-1v-66l-1-1v-2l1-8-1-1v-40zM624.5 385l.5 4.5h-1zM7.5 402l.5 2.5H7zM653.5 403l.5 8.5h-1zM176.5 406l.5 1.5-3 2zM6.5 407l.5 6.5H6zM171.5 413l-1 2zM5.5 416l.5 10.5H5z" opacity=".996"/><path fill="#1a5990" stroke="#1a5990" d="m630 426 2 .5-1 2q2.3 1.3 1 6l-1 3-24 24v43l-3 5-18.5 19.5-1.5.5q1.3 2.8 2.5.5 3.3 1.1 2.5-1.5h1l1.5 3.5h2q2.3-.7 1.5 1.5l1.5-.5 2.5 1.5.5 1.5 3.5-7.5 16-23 17.5-33.5.5 1.5-15 29-16 24q-6.9 11.1-10 26v5l-3 13v7l-1 1v8l-1 1-1 43-1 1v48l-1 3 .5 1.5-2-4-3 1-1-2 1.5-.5-2-4q3.8-1.7.5-3.5-1.5 2.5-3-1l-3-1-1.5.5-2.5-5.5-1.5.5 1-5-1.5.5-1.5.5v2l-1 3v2l-.5 9.5-.5-48.5-1-1q2.3-1.3 1-6l-1-2 1-1v-9l-1-3 1-3-1-2 1-3-1-1v-63l1-2.5h11.5l2-1 23.5-23.5 2-4v-43l24-24zm-48 241q-1 4 2 3 1-4-2-3ZM650.5 426l.5 3.5h-1zM4.5 429l.5 49.5H4zM649.5 431l.5 3.5h-1zM648.5 436l.5 2.5h-1zM34.5 447l-1 2zM644.5 451l.5 1.5-3.5 8.5-.5-1.5zM770.5 459q2.3-.7 1.5 1.5zM639.5 465l.5 1.5-2.5 4.5-.5-1.5zM651.5 476l.5 1.5-2 1zM5.5 482l.5 9.5H5zM647.5 485l-.5 1.5-1.5 3.5-.5-1.5zM6.5 493l.5 6.5H6zM642.5 495l-.5 1.5-2.5 4.5.5-1.5zM7.5 501l.5 5.5H7zM636.5 506l-1 2zM8.5 508l6.5 36.5 13 42 15 34 11 20 11 15 1 4-2 1-1-4-17-26-13-26-9-23-6-19-1-9-3-6-1-10-4-15zM633.5 511l-.5 1.5-1.5 2.5.5-1.5z" opacity=".996"/><path fill="#1a5990" stroke="#1a5990" d="m630.5 516-.5 1.5-18 35-1.5 8.5-.5-3.5 3-12zM115.5 520l.5 2.5h-1zM114.5 524l.5 2.5-2.5 8.5-.5-3.5zM111.5 536l.5 3.5-1.5 3.5-.5-2.5zM609.5 562l.5 4.5h-1zM162.5 569l4.5 2.5-2.5.5zM608.5 569l.5 4.5h-1zM165.5 573l38.5.5-38.5.5zM607.5 578l.5 4.5h-1zM454.5 591l3 2q-1.6 1.8 1.5 3.5l-1 2q2.8.8 2 5l-2-1zM101.5 604l.5 5.5h-1zM461 608l2 .5-1 2.5q3-1.2 2 2.5l2 4.5q-2.7 1.1-2-1.5zM465.5 619l1.5 3.5h-1zM67.5 660l-8 9zM604.5 661l.5 28.5h-1zM571.5 667q3-.8 1.5 3l-2-.5zM576.5 671l1 2zM115.5 697l.5 1.5-6.5 9.5.5-1.5 1-3-3 2-3.5 5.5.5-1.5q3.3-8.2 10.5-12.5ZM604.5 697l.5 8.5h-1zM38.5 710l.5 2.5h-1zM103.5 712l.5 1.5-1.5 2.5-.5-1.5zM106.5 715l.5 2.5h-1zM604.5 715l.5 2.5h-1zM37.5 716l.5 3.5h-1zM105.5 720l.5 5.5h-1zM100.5 724l.5 4.5h-1zM33.5 726l.5 4.5h-1zM604.5 726l.5 2.5h-1zM106.5 728l.5 3.5h-1zM101.5 730l.5 2.5h-1zM474.5 730l9.5.5-7 3q4 2 0 4-.8 2.6 2.5 1.5v1q-2.6-.7-1.5 2l3.5-1 .5 1.5-1 2 3.5 5.5 1.5.5-2 1 1 2.5 3 1.5 1.5 2.5q3.3-1.1 2.5 1.5l-3 4 3 1-1 2h2l-1 5.5 2 .5-1.5.5-2-1 1.5 2.5-5 7 1.5.5 15.5-13.5 6-10 1-8.5q3-1.2 2 2.5l-4 11-12.5 14.5-32 19-28 12-18 6v-1q5.9-.6 8.5-4.5l1-3.5q2.7 1.1 2-1.5l.5-1.5-2 1 2-3 1.5.5-1-3 1-1-3.5-3.5H427q1.5-3.7-1.5-3l-1-3-1.5-.5.5-1.5-4-1-2 1-1-2 1.5-.5-3-2q.8-2.2-1.5-1.5l-8-7h-2l-8 1v-1l45-20 31.5-20.5-.5-1.5zm3.5 14q-1 3 2 2 1-3-2-2Zm3 2-1 3h1zM39.5 733l2.5 19.5h-1l-4-13v-5h1l.5 2.5zM102.5 734l1.5 3.5h-1zM33.5 736l.5 7.5h-1zM104.5 739l1.5 2.5-2-1zM112.5 743l2 3zM594.5 743l1.5 3.5h-1q.8-2.2-1.5-1.5zM109.5 747l2 3zM597.5 747l1 2zM34.5 748l.5 2.5h-1zM117.5 749l3 4zM600.5 749l18.5.5-18.5.5zM623.5 750q9.3 3.2 14.5 10.5l-1.5.5-2.5-4-8.5-5h-2l-2.5-.5zM35.5 753l1.5 5.5h-1zM124.5 755l2 3zM118.5 756l1 2zM128.5 758l2 3zM134.5 762l14.5 7.5-1.5.5-12-6zM38.5 763l1.5 3.5h-1zM128.5 763l1 2zM649 765q3.7-1.5 3 1.5 3.7 2.4 3 8.5l2 .5-2 10-4.5 7.5-1-1-6 6-3 2 3-4q2.3.8 1.5-1.5l4-7 1-18zM135.5 767l1 2zM640.5 767l.5 2.5h-1zM40.5 768q9.8 20.2 25 35l2-1 19 16q16.3 11 35.5 18l.5 2 2-1 5.5 2q-1.1 2.7 1.5 2l1.5-.5-.5 1.5 3-1v2l3-1 3 2 10.5 2.5-.5 1.5 4-1v1l-4 1-30-10-16-7v1l13.5 6.5-1.5.5Q83.9 826.1 61 801.5l-16-22-5-10zM67 803l2 3v-1zM641.5 771l.5 7.5h-1zM169.5 777l2.5.5-2.5.5zM173.5 778l2.5.5-2.5.5zM177.5 779l2.5.5-2.5.5zM181.5 780l2.5.5-2.5.5zM186.5 781l2.5.5-2.5.5zM190.5 782l3.5.5-3.5.5zM195.5 783l3.5.5-3.5.5zM203 784l4 .5-3 .5q-1.2 3 2.5 2v1l-3.5-1.5zM209.5 785l3.5.5-3.5.5zM194.5 786l4.5.5-4.5.5zM215.5 786l6.5.5-6.5.5zM314.5 786l3.5.5-3.5.5zM225.5 787h15l1 1h59l1-1h9v1l-15 1-1 1h-13l-1 1h-45v-1l25.5-.5-35.5-1.5zM210.5 788l4.5.5-4.5.5zM219.5 789l8.5.5-8.5.5zM647.5 797l-4 5zM547.5 803l8.5 3.5-2.5.5-6-2-1 3-3-1-3 2-23 7-21 4-24.5 2.5 18 1-31.5.5-2-1-17 9-34 12-35 7-17 2-11 3h-6l-22 4-17 1-1 1h-14l-1 1h-54l-1-1-12.5-.5 1-2.5-19.5 1-7.5-1.5 5-1-37-8 3.5-1.5 9 3 22.5 3.5-2 1 3.5.5 5-1v2l10-1 9 2 11.5.5-3 1 6.5.5 1-1h46l1 1h17v-1l-9.5-.5 31.5-2.5q1.5 2.5 3-1l38-5 5-2h5l21-5 39-12 22-9 4-3h8l1 1h10l1-1h12l1-1h9l1-1 12-1 29-8zM322 856v1h2zm-126 2v1h6zM640.5 803l-1 2-2 1 1-2zM557.5 807l5 1 45 1 2 2 9.5 1.5-5.5.5-1-1h-9l-5 1-1-1h-27l-1-1-10.5-.5 2-1-3.5-1.5zM620.5 813l2.5.5-2.5.5zM506.5 820l3.5.5-3.5.5z" opacity=".996"/><path fill="#1a5990" stroke="#1a5990" d="m500.5 821 4.5.5-5.5 1.5h-8v-1h8zM120.5 840l3.5 1.5-1.5.5zM125.5 842l3.5 1.5-1.5.5zM149.5 850l2.5.5-2.5.5zM153.5 851l2.5.5-2.5.5zM157.5 852l2.5.5-2.5.5zM161.5 853l2.5.5-2.5.5zM165.5 854l3.5.5-3.5.5zM170.5 855l3.5.5-3.5.5zM224.5 855l3.5.5-3.5.5zM292.5 855l5.5.5-5.5.5zM176.5 856l2.5.5-2.5.5zM239.5 856l8.5.5-8.5.5zM270.5 856l9.5.5-9.5.5zM181.5 857l5.5.5-5.5.5zM204.5 860l6.5.5-6.5.5z" opacity=".996"/><path fill="#298bc1" stroke="#298bc1" d="m580.5 3-2 3L564 18.5q.8 2.3-1.5 1.5l-3 4-6.5 5.5L540 46q-2.7-1.1-2 1.5l-6.5 7.5-1.5-.5-4.5 6.5 1.5-2.5-1-2 4-2.5v-2.5L563.5 15l1 2 8-10zM585.5 13l4.5 1 14 27.5 21 52 4.5 4.5 16 4 16.5 7.5-1 2 14 13 15 21 6.5 15.5 2.5-1.5q-1.2-12.2-7-20L674.5 119l-11.5-8.5 1.5.5q27.5 11.5 44.5 33.5 8 9 13 21v7l-1 1v16l5 10 14 14v1.5q-8.3-.5-12 4.5l6.5 8.5 4.5 3.5q2.8 1.7 2 7l-5 14-6.5 6.5-8.5 3 2 5.5-5.5 6.5q-7.9 6.6-20 9l-33 4q-9.6 2.4-14.5 9.5l-5 17v14l8 42 1 33-1 1q.8 9.3-1 14.5h-18.5l-1.5-1.5v-39l-4.5-4.5-31-27h-17l-2-1-39.5-28.5 2-14q-2.9-16.1-14.5-23.5l-14-6h-12l-2 1v-1l4-2q8.2 1.1 11.5-1-1.1 2.7 1.5 2v-2l6.5-2 1.5-4 1 2 1.5-.5.5 1.5.5-2 4-1.5 3-8-1.5.5-2.5-.5 2-.5 1-4-3-.5 2.5-.5 1.5 3 2-.5-.5-1.5 2 1 1.5-5q-3.7 1.5-3-1.5l-.5-1.5q2.3.8 1.5-1.5l-1-1 3-3-.5-2.5-.5 2q-2.7 1.1-2-1.5-2.5-1.5 1-3l-3-4 4.5-2.5h4l5 5h14l1-1h18l1-1h43l1 1h20l1 1 27 1 2.5-1 2-6-9.5-2-20-2-1-1h-8l-1-1h-13l-1-1h-46l-1 1-23 1-3.5-2v-2q-2.7 1.1-2-1.5l-10.5-8.5h-18l-7 8q-2.2-.7-1.5 1.5l-5.5 4.5h-8v-1l8-1 6.5-6.5 1.5-2.5q2.6.7 1.5-2h2v-1.5q1.3-2.7 2.5-.5l3-2 3.5-1q1-3-2-2v-2.5l1-3.5q3 1.3 2-2.5h-1q.8 2.3-1.5 1.5l.5-1.5q.8-3.7-1.5-4.5l-2.5-.5 2.5-.5 2 1 2.5-1.5-3-.5-1-5.5h1q-1 3.8 2 2.5l-2-4.5 2-.5v-4h-1.5l-1 3-.5-2.5 1.5-6.5 1.5.5 1-3-2-.5q1.1 2.7-1.5 2l.5-1.5q-1.1-3.3 1.5-2.5 1.8 3.7 3.5.5l-5-1.5v-3.5l3-6v-4l2-3-2-3h1q-.8 2.6 2.5 1.5v-1l-1.5-.5 2-1 1.5 2.5 2.5-1.5-4-3 2-3.5-3-1.5 1.5.5 4 1v-1l-1.5-.5V129l2-.5-2-4 1.5-3.5q1.8 2.7 3.5-1.5l.5-5.5 1.5.5-1-2 3-4.5q-3 1-2-2 3 1 2-2l-2.5 1-.5-2-2-.5 1-2.5 2.5 1 .5-1.5-2-4 3-2-1-2 1.5.5 2.5-.5-1-3.5q4.1 1.3 3-2l-4 1.5q.8 2.3-1.5 1.5v-3q1.3 2.3 2.5-.5l-2-3 1-2-1.5.5q-2.6.7-1.5-2l3.5 1 1.5-1.5 1-6.5-2-.5 1-3.5-4 1-2-3.5 27-35L583.5 14zm-.5 13-7 5-8 13-12 27-7 24v5l-3 12v7l-1 1q-2 12 2 20l4 1 1-3h2l39-26 20-8-5-21-11-33-8-19-4-5zm-40 37-2 2q2 3 3 0t-1-2Zm7 7-2 3 3 2zm-2 6 1 2-1 2 2-1q1-4-2-3Zm-3 3v2l2-1zm-1 3v2l3 1 1-2h-1zm3 19-1 4h1zm-12 22 1 5 1-3q1-3-2-2Zm-3 16v1h2zm-2 6-1 3h1zm3 1-2 2h2zm-9 12q-1 3 2 2 1-3-2-2Zm140 3-19 5-9 4q-1 3 4 2l-1 2 5 7 15 14 13 7 5 1 21-1 4-1q-5-8-7-21l-5-10q-7-11-26-9Zm-138 8v2l2-1zm141 68-1 1h-20l-1 1-18 1-21 4-3-1-5 1h3v1l-3-1-4 1h2v1l-3-1-4 1h2v1l-3-1-3 1h2v1l-4-1-3 1 2 1-9 2-2-1-9 2v2l-3 1-3-1v2l-3-1v2l-2-1-3 1 2 1-3 1-1-2-6 4q1 2-2 1-1 5 3 7h5l6-3 41-10h5l29-6h9l17-3h8l9-3 1-3q4 1 2-3zm2 13-19 4-37 12-4 2-1-1-1 2-17 8h-4l-7 4-4 5 1 3 3 1 38-16 56-18 1-4q-1-3-5-2ZM686.5 36l-1 2-8 5 1-2zM674.5 44l1.5.5-3.5 2.5z" opacity=".992"/><path fill="#298bc1" stroke="#298bc1" d="M695.5 44q2.5 1 1.5 5.5l-5 21v5l-4 16-3.5 23.5-13-8-24-8-9.5-5.5v-2L648.5 81zM668 48l2 .5-2 1zM541.5 83l1 2q-2.8.7-1-2ZM540.5 108l1 2-3 1v-1q2.5.7 2-2ZM537.5 117l.5 2.5h-1zM484.5 130l-1 2zM479.5 133l-1.5 2.5-9.5 13.5.5-1.5zM455.5 192l.5 4.5-5 26-11 25.5-2-.5q6.6-9.9 10-23l4-22zM450.5 198l.5 2.5h-1zM449.5 203l.5 1.5-1.5 6.5-.5-5.5z" opacity=".992"/><path fill="#298bc1" stroke="#298bc1" d="m447.5 212 .5 3.5h-1zM446.5 218l.5 2.5h-1zM435.5 252l-1 2zM409.5 280l-1 2zM405.5 283l-1 2-5 2 1-2zM499.5 291q15.8-1.7 20.5 7.5 3.3 3.7 2 12l-2 4 2-1 1.5-11.5 1.5 7.5-5 9.5-6.5 4 2-3 4.5-3.5-.5-1.5-9 7-8 1q-7.8-1.7-12.5-6.5l-3-7v-4q1.6-8.9 8.5-12.5zm2.5 1-6 3-7 9q-1 8 3 12l8 5q10 2 15-3 4-4 6-10 1-8-3-10-4-7-16-6Z" opacity=".992"/><path fill="#298bc1" stroke="#298bc1" d="M501.5 294q11.7-.7 15.5 6.5l2 7q-.9 6.6-5.5 9.5l-7 3h-4q-6.5-1.5-9.5-6.5-3-3-2-10l3-5.5zm-1.5 2v1h2zm2 3-4 1-2 3-3-1-1 3 1 7 3 1-1 2 3 1 2-1 1 1h-1l1 2 9-1v-1l-4 1-4-1 9-3 3-2 2-3-2-4-4-3 1 4v2l-4-2 2-1 1 1-1-3q-3 1-2-1-1-3-5-2Zm10 15-1 2 2-1z" opacity=".992"/><path fill="#298bc1" stroke="#298bc1" d="m503.5 300 2.5 1.5-3 1.5zM318.5 311h2l1.5.5-4 1.5zM659.5 313l.5 2.5h-1zM307.5 316l1.5.5-2.5 1.5zM659.5 321q3 3 1.5 10.5h-1zM283.5 324l4.5.5-5.5 2.5-.5-1.5zM537.5 324q4-.5 4.5 2.5l-2.5-1.5h-2q-7.9 10.6-20 17l2-3 11.5-8 4.5-6zM444.5 325l4 5z" opacity=".992"/><path fill="#298bc1" stroke="#298bc1" d="m528.5 327-1.5 2.5q1.1 3.3-1.5 2.5l-9 8h-4v-2l-6.5-.5q14.4-2.1 22.5-10.5ZM461.5 328l10 8h3l11.5-2v-3q-2.7 1.1-2-1.5l2.5 1.5 4 3 7.5 2.5-28.5.5-3.5-5q-4.1.5-4.5-4Z" opacity=".992"/><path fill="#298bc1" stroke="#298bc1" d="m537.5 329 40 27h16l2 1 28.5 25.5-.5 1.5 1.5.5-1 5 1 5-1 2 1 1v12l-1 1v19l-2.5 5.5h-3L598 455.5v45l-3.5 3.5-5.5 4.5-2 3-12.5 11.5-2-1h-2l-2.5-.5v-29l-1-1v-103l-5.5-7.5-2-1h-55l-5.5 4.5-10 14v6.5l-2 .5 2 .5-.5 16-1-6q-1.3 2.3-2.5-.5l2-1-2-.5q-1.2-3 2.5-2v-1q-2.6.8-1.5-2.5l.5-1.5-2 1-.5-1.5 2.5-3.5H485v-4q2.7 1.1 2-1.5l-1-2.5-2-.5 1-2.5q2.7 1.1 2-1.5l1-4.5-2-.5 2-1-.5-1.5h1.5v-2q2.7 1.1 2-1.5-2.8-1.7 1.5-3.5l1.5-.5-3-1 1-2.5q3.3 1.1 2-3-3.7 1.2-2-4l6-1-.5-2-1.5.5q-.8-2.6 2.5-1.5l-1-2q-3.7.8-4.5-1.5-.7-2.6 2-1.5v-3l-2-.5 2-.5-.5-2-2 1-6.5-2-.5-2h-15v-1h47zm46.5 29-1 2 28 23 6 7 1 44 2-2v-44l-30-27zm-88 7q-2 3 1 2zm0 6-1 3h1zM450.5 331l6.5 5.5-1.5.5zM458.5 338l7 8z" opacity=".992"/><path fill="#298bc1" stroke="#298bc1" d="m482.5 342 32.5.5-32.5.5zM485.5 387l.5 2.5h-1zM7.5 405l.5 2.5H7zM6.5 414l.5 8.5H6zM632.5 426h17q1 0 .5 4.5l-4 17-9 24-18 34-16 23-4.5 9.5-.5-1.5 1-2-1.5.5-2.5-1.5q.8-2.2-1.5-1.5l-3.5-1.5-.5-2.5-.5 2-3.5 1-1-2 3.5-2.5 16-17 3-5v-43l24-24 1-8-1-2zM5.5 427l.5 19.5H5zM665.5 427l.5 3.5h-1zM664.5 433l.5 2.5h-1zM663.5 438l.5 2.5h-1zM662.5 442l.5 2.5-1.5 3.5-.5-2.5zM660.5 449l.5 2.5h-1zM659.5 454l-.5 1.5q-2.7 14.3-9.5 24.5l-.5-1.5zM5.5 465l.5 16.5H5zM648.5 481l.5 1.5-2.5 3.5.5-1.5zM6.5 485l.5 7.5H6zM644.5 489l.5 1.5-30 51-4 10v5l-3 13v8l-1 1-2.5 43.5-1.5-12.5 1-1v-14l1-1 1-21 2-6 1-15 5-11q17.1-23.9 30.5-51.5ZM7.5 495l.5 5.5H7zM8.5 503l.5 4.5H8zM9.5 509l.5 5.5H9zM10.5 517l.5 3.5h-1zM114.5 521l.5 2.5h-1zM11.5 523l.5 2.5h-1zM12.5 528l.5 2.5h-1zM13.5 532l.5 3.5h-1zM111.5 532l.5 3.5-1.5 4.5-.5-3.5zM109.5 541l.5 2.5h-1zM15.5 542l.5 2.5h-1zM16.5 546l1.5 5.5h-1zM19.5 556l.5 2.5h-1zM20.5 560l6.5 20.5 11 27q9.8 22.2 23 41l-3-2-22-41-11-27-5-16zM161.5 569q.5 3.5 5 3l1-1h35l1 2h-38l-3 1-2.5-3.5zM99.5 607q3-.9 1.5 3.5h-1zM603.5 634l1.5 24.5-1 3-.5 44.5-.5-15.5-1-2v-28l1-1zM61.5 650q5 3 5.5 10.5l-4.5 3.5 3.5-4.5zM69.5 658l-1 2zM112.5 701l-1.5 2.5-5 12-1 10 4 13 11.5 14.5 15 11 22 10 24 7 17.5 3-.5 2h-8l-29-7-18-7-21-12-10.5-9.5-5-6-5-11-1-13q2.7-12.8 11.5-19.5Zm-8.5 24-1 9 5 10 7 6-9-15zM38.5 707l.5 2.5h-1zM603.5 707l.5 4.5h-1zM37.5 712l.5 3.5h-1zM603.5 716l.5 2.5h-1zM36.5 717l.5 9.5h-1zM34.5 718l.5 6.5h-1zM36.5 729l.5 10.5 8 24q6 14 15 25l-3-2L43.5 764q-2.6.8-1.5-2.5l-6-22zM477.5 729q23.2-1.2 31.5 12.5l4 8-2 .5q.4 7.7-3 12.5L494.5 778l-7 4 1.5-2.5 3-5-1.5-2.5q2.3.8 1.5-1.5l1-4h-2l-2-3 3-5.5-4.5 1v-1l1.5-.5-2.5-3.5q-2.2.8-1.5-1.5l-.5-1.5 1.5-.5-4-3-1-4 1-2-1.5.5q-3.7 1-2.5-2l2-.5-3-.5 2-3.5-1.5-2.5 6.5-2.5-6.5-.5zM604.5 729l.5 4.5h-1zM33.5 731l.5 4.5h-1zM608.5 739l2.5.5-2.5.5zM612.5 739l2.5.5-2.5.5z" opacity=".992"/><path fill="#298bc1" stroke="#298bc1" d="M34.5 741q1.3 15.2 7 26l2.5-1q5.1 14.7 15.5 25l2.5-1 5 6.5-5-3L75.5 808l25.5 17.5-1.5-.5q-17.6-7.9-30-21l-.5 1.5 2.5 3.5Q55.6 794.4 44 775.5l-9-23zM478 744q2.7-1.1 2 1.5l1 3h-1V746q-3 1-2-2ZM603.5 748l7.5.5-7.5.5zM619.5 749l3.5.5-3.5.5zM643.5 750l8.5 10.5q4 5 4 14h-1q-.3-6.5-3-9.5-4.1 1.7-3-2.5l-6-11zM629.5 752l8.5 7.5-6.5-5.5zM641.5 768l.5 2.5h-1zM204 785l11.5 2h9l1 1 35.5 1.5-32.5.5-1-1h-12l-11.5-2zM649.5 792l.5 1.5-8.5 9.5 2-4-2 1 1-2zM68.5 798l6 7zM546 801l4 .5-2 1 .5 1.5-1-1-3.5 2.5q2.8-1.1 2-4.5ZM637.5 804l-1 2zM556.5 806l2.5.5-2.5.5zM562.5 807h36l1 1 15.5.5q-1.7 2.3-6.5 1.5l-1-1h-12l-1-1h-32zM528.5 810l2.5.5-2.5.5zM512.5 814l2.5.5-2.5.5zM507.5 815l3.5.5-3.5.5zM502.5 816l3.5.5-3.5.5zM513.5 816q2.3-.7 1.5 1.5l.5 1.5-16 3h-8l-1 1h-18v-1l17-1 16-3q1.5 2.5 3-1zM493.5 817l4.5.5-4.5.5zM450.5 818l1.5.5-3.5 1.5v-1zM455.5 818l6.5.5-6.5.5-18 9-26 9-33 9-12 2v-1l12-2 36-10 30-11zM483.5 818l4.5.5-4.5.5zM464.5 819l10.5.5-10.5.5zM102.5 826l21.5 10.5-1.5.5-19-9z" opacity=".992"/><path fill="#298bc1" stroke="#298bc1" d="m421.5 829 1.5.5-3.5 1.5v-1zM104.5 831l17 8 26 9 45.5 9.5-5.5.5-43-9-25-9-14-7z" opacity=".992"/><path fill="#298bc1" stroke="#298bc1" d="m125.5 837 9.5 3.5-1.5.5-8-3zM393.5 838l2.5.5-2.5.5zM136.5 841l26.5 7.5-2.5.5-19-5-5-2zM361.5 848l2.5.5-2.5.5zM164.5 849l8.5 1.5-4.5.5-4-1zM345.5 849l8.5 1.5-17.5 2.5-4.5-1.5 4.5-.5 4 1v-1l-1.5-.5 3.5-.5 4 1v-1zM355.5 849l4.5.5-4.5.5zM174.5 851l3.5.5-3.5.5zM179.5 852l4.5.5-4.5.5zM325.5 852l9.5 1.5-19.5 2.5q-1.2-2.2-6-1v1l2.5.5-9.5.5-1 1h-14l-1 1h-58l-1-1h-11l-8.5-1.5 15.5-1.5v1l-7.5.5 10.5.5 1-1h11l1 1h40l1-1 28-1 10.5-2 .5 2zm-96.5 5v1h10zM186.5 853l11 1 3-1v2l9-1v1l-11 1-1-1-11-1zM195.5 858l19.5 1q1.3 3.3-3.5 2l-1-1-15-1z" opacity=".992"/><path fill="#e26419" stroke="#e26419" d="M585.5 8h2l5.5 5.5 4 7-2-1-5.5-7.5-3-1-7 3L555 38.5q-21.2 23.3-39 50-13.1 19.9-22 44l-16 23-11 29-8 42.5h47.5l14-14h8l1-1 2 1 4-1 1.5 1.5-.5 2.5h-14l-14 14H458l-3 9.5-11 21 39.5 27.5q5.9-6.6 16-9l2 1h2q17.8 1.2 24.5 13.5 4.6 5.4 5 15v2l-2 9-9.5 10.5q-6.6 4.9-18 5l-11-3-10.5-8.5-6-11v-12l6-12-3.5-1.5h-2q-18.5-10-34-23h-2l-15 17-19.5 14.5.5 1.5h-4L371 310.5l7.5 8.5-11-8h-4l-21 7-24 6-39 15-41 23q-14.9 9.6-26.5 22.5l29.5 31.5 5 1 1-1h21l1.5 3-2.5 1h-88l-1.5 1.5Q158.7 445 147 475l47.5-1 4.5 3.5 4 5v2l-25 43-3.5 3.5h-47l-2.5 2.5-5 22v6.5h90.5l2 1 2.5-2.5 6-13 11-29 5-9 6-17 10-21 25-61q4.4-12.6 13.5-20.5l12-6v1l-3.5 1.5 14.5.5h2q5.9-2.6 16-1l1 1h12l6 2 10.5 8.5 5 7 6 13 4 13 30 73 60 154 7 16 2.5 2.5 3-1 .5 5h-60.5l-5.5-4.5-21-55-3.5-4.5-4-2h-19l-5 1-3-1h-18l-1-1-1 1-40.5.5 5 1-15.5.5v-1l3.5-.5-6.5-1.5h-14l-1 1-12.5.5 2 1-3 2-5 16q-9.5 18-16 39l-5.5 6.5-2 1h-13v-1l10.5-1.5-24.5-.5v1l6.5.5-15.5.5-2 1-4-1-3 1h-16l-1.5-1.5 30-69 17-41V565h-7.5l-1 1h-37q-1.5-2.5-7-1l-1 1h-10l-2-1-1 1H118l-2 11.5v7l-1 1v8l-1 1v12l-1 1v28l-2.5 3.5Q87.8 652.3 71 671.5q-12.9 13.6-20 33l-4 16v23q3.3 19.7 12 34 9.7 14.3 22.5 25.5l3 2 22 15 16 8h3.5v-28.5l-1.5-.5q-24.2-13.3-41.5-33.5.8-2.6-2.5-1.5l-14 10-4 1 4-5 39-25q3 1.5 0 3L84 761v1.5l17.5 17.5 27.5 18.5v24l-1 1v6.5l26.5 9 25.5 5 3-13.5-6-5q-4.3-3.2-3-12l7.5-9.5q4.5-3.7 13.5-2l3-12.5 2.5-3.5q2.3-.7 1.5 1.5l-5 15 8 7 2 9.5h7.5l1 1h14l1 1h24q1.8 2.8 8 1l1-1h29l1-1 24-1 3.5-2.5-1-31.5q3.7-1.4 2 4.5l1 1v28l-6.5 3.5-23 1-1 1h-58l-1-1h-14l-1-1-12-1-6 8q-5.1 4.7-15.5 3l-3 13 11.5 2h7l1 1 24 1 1 1h57l1-1h10l1-1h11l1-1 16-1 24-5h5l1.5-1.5-3-24-1-1-2-23-1-1V780l-24.5 3-1 1-19 1-1 1h-16l-1 1h-44l-1-1h-14l-1-1h-8l-1-1-19-2-33-9-26-12-20.5-18.5-7-13-1-14q2.3-9.7 8.5-15.5l1.5.5v10l2 10 4 10 14.5 17.5 22 13 19 7 19 4 19 2 1 1h9l1 1h12l1 1h45l1-1h15l1-1 25-2 21.5-4v-2.5L320.5 736l-15-14h-31l-2-1-2 1-3-1h-2l-3 1-4-1h-2l-9 1h-2l-8-1-3 1-3-1-4 1-1-1h-47l-29 28-1.5-2.5 29.5-28.5h127l28.5 27.5 4.5 5.5 8.5 7.5 4 5 4.5 4.5h2l36-9 25-9 3.5-3.5-7.5-9.5q-4-3-11-3h-2l-23 1-2-1-1 1h-9l-3-1q-3.7 1.3-2.5-2.5 13.5-11 21-28l4-14v-16q-4.9-24.6-17-42l4.5-.5q9 14 14.5 31.5l3 12v15q-4.8 25.2-21 39l34.5.5 8.5 2 .5 2 1.5-.5-.5 1.5 2 1 2-1 1 3 7.5 5.5 1.5 2.5 35-19 13-4h16q12.4 3.1 19.5 11.5l6 14v13l-3 8 2.5.5 13.5-5.5v-6l-12-40-3-15-2-4V693l2.5 1 4-1 3.5 7.5 3 14 19 63q3.1 9.9 10.5 15.5l6 3 19 1 1-1h47l8.5-4 5-9.5v-19q-1.9-8.6-7.5-13.5l-10-5h-24l-5.5-4.5-2-4q1.5-5.5-1-7v-21l-1-1v-96l1-1v-19l1-1 1-20 4-21 7-16 21-34 9-18 12-32 4-21 2-4q-4-2 0-4v-8l1-1v-38l-1-1-2-20-5-21-1-14 4-13 6.5-6.5 13-5 19-2 13-3q12.2-4.3 19.5-13.5l6.5-8.5 4.5-2 6.5-13 1 2 2-3 1.5.5-7 12.5-8 6.5-10.5 12.5q-8.7 6.8-21 10l-16 3h-7l-13 3-10.5 8.5q-3.9 7.6-2 21l8 46v40q-2.5 1.5-1 7l2 7-4 18.5-2 .5v8l-13 36q-10.5 22.5-24 42l-8 16-2 7-2 10v7l-1 1v13l-1 1-1 24-1 1v43l1 1v60l1 1 1 19 3.5 5.5q6.3 2.8 17 1l9 2 12.5 10.5 4 7 2 14-2 10-5 8.5-8.5 6-8 2h-66l-12-5-19 7-16 4-25 3-1 1h-22l-3-1-51 19-56 14h-6l-6 2-13 1-15 3h-7l-1 1h-9l-1 1h-14l-1 1h-50l-1-1h-16l-1-1h-10l-1-1-20-2-4-2h-7l-4-2-13-2-20-6-8-5h-3l-2-2-15-6-11-7-18-15L62 786.5q-9.6-12.9-15-30l-3-15v-19l3-14v-6l4-11q8.4-16.6 20-30l2-7-14-21-19-36-11-30-3-13-2-3-5-20v-6l-3-9v-6l-3-15-1-34-1-1v-32l1-1 1-26 1-1 3-24 10-43 13-38 26-52-2 1-1.5 2.5.5-1.5 7-13 3.5-3.5-.5 1.5.5 1.5 14-21 3-1v1l-1.5.5 28.5 26.5 5.5 2-1-4 3-1.5-1.5-3.5-11.5-8q1.1-2.7-1.5-2L95 207.5l-1-4 3-4-2-1 14-17.5q2.7 1.1 2-1.5l37.5-35.5 18.5-13q-1.1-2.7 1.5-2 17.5-14 38-25l35-17h3l20-9 15-4 2-2 28-7 26-4 4-2h11l1-1 18-1 1-1 40-1 1 1h18l1 1h10l1 1 15 1 32.5 6.5-3.5.5-6-2-25-3-1-1h-7l-1-1h-14l-1-1h-13l-1-1h-20l-1 1h-19l-1 1h-8l-6.5 1.5 6.5.5 1-1h48l1 1h11l1 1h10l1 1 21 2 25 5 20 6h5l1.5-.5-17 26-4 8.5-6.5 1-5-2-26-5h-6l-7-2h-11v1l27 3 31.5 7.5-1 2.5-15.5-4q-12.7-.3-22-4l-16-1-1-1h-12l-1-1H374l1 4.5q-1.7-1.6-3.5 1.5H368v-5h-6.5l-34 6-3 2-21 4-16 5-15 7-9 6-11 3-14 7-16 11-7 3-16 12H197v3h-3q1.1 2.7-1.5 2l-6.5 4.5.5 1.5H184q1.1 2.7-1.5 2l-7.5 5.5q.8 2.3-1.5 1.5L161 202.5q.8 2.3-1.5 1.5l-4 5-2.5 1.5q-22 20.5-38 47-17 28.5-31 60l-13 37-3 16-2 4-3 24-1 1v8l-1 1-1 21 3 1.5 1.5 3 5.5 3v2q3.8-1.5 3 1.5 1.5 3 7.5 1.5l1.5-1.5v-23l2-10v-10l2-4 1-12 5-19v-4l11-31 3-4 6-15 3.5-4.5 5.5 3-17 41.5-7 26-4 30-1 1v7l-1 1-1 22q2.8 1.8 1 8l-2.5 3.5-9 1-3.5 2.5q1.3 17.3-8.5 23.5l-8.5 4.5v14l1 1 1 12 11 43 12 31 14 28 3 11.5q3 1.3 2-2.5l1-1v-11l2-9v-8l9-48 5-19 15-41q25.6-58.4 68.5-99.5 24.6-23.9 56-41l34-15 37-12 36-9 23-8q23.3-10.2 38.5-28.5 13.4-14.1 21-34l5-18 1-10 6-26 12-28 15-21 13-25 18-24 6-11 29-35L570.5 18q5.9-6.6 15-10ZM379 100l-1 1-25 1-19 4h-5l-40 11-28 11v1l39-14 38-9 11-1 6-2h11l1-1 46-1zm36 0v1l3 1h12zm-159 30-10 5v1l12-5zm-12 6-13 7v1l14-7zm-15 8-1 2 2-1zm-12 7-1 2 2-1zm-3 2-1 2 2-1zm-3 2-1 2 2-1zM73 232l-2 3 2-1zm-2 3-2 3 2-1zm-2 3-3 4 1 1 2-3zm431 47-7 3q-9 5-12 16v6l3 8q6 8 17 11h8l9-4q8-5 10-15v-5l-3-9q-6-12-25-11Zm-412 8-3 5 1 2 2-4zm-3 7-9 18-14 43-6 30v7l-2 8v11l-1 1v11l2 1 1-1 1-24 1-1 1-16 4-21 14-47 8-18zm123 88-25 28 1 1h53v-2l-17-18-5-4-3-3q-1-3-4-2ZM47 432l-8 4-7 11-1-1-4 6q-1 9 3 14 6 9 21 11l1 2 1 18 1 1v7l3 11v5l7 27 15 39 19 34 4 2-8-13-17-36-10-29-8-33v-7l-2-6-1-15-2-10 9-3 2-3-7 2-4 1 1-2q-8-1-12-4l-7-8q-1-9 2-12 4-5 11-7 9-1 13 3l6 10v8l-1 1 1 1 3-5q1-9-2-12-7-11-22-12Zm274 10-5 8-45 118h103l-2-2h-15l-1-1h-82l41-101 6-18zm4 0-44 110-3 12h95l-44-120zm-179 36q-13 23-19 51l7-1h40l25-42-3-6v-2zm260 167-1 3h1zm-236 31-1 2h29l-27-1zm250 1v1h18zm65 48-8 2-35 21-25 12-32 11-36 8 2 21 1 1v7l1 1v8l3 15v8l46-11 37-13 37-17 22-15 10-12 4-9 1-8 2-2v-9l-5-11-5-4-8-3zm-299 81-2 1-6 7 1 8 8 6q7 1 11-2l4-6-1-7-7-7z" opacity=".992"/><path fill="#e26419" stroke="#e26419" d="m582.5 29 3.5 1.5 8 21-.5 1.5q2.3-.7 1.5 1.5l7 21h-1l-.5-1.5-.5 2.5 3 1-1 5 6.5 17.5 1.5-.5-2.5 5.5-22 10-18 11-12 10H553q-2.1-4.8-1-14.5l1-1 1-18 5-23 11-30zM694.5 39q6.3-2.2 4.5 3.5 2.2 1.3 1 6l-3 14v8l-2 2-1 8 1 3.5-2 .5v12l-3 6q2.5 1.5 1 7l-3 1v1.5l2 .5v5l10 9-2.5-1.5-12.5-8.5 5-20v-5l8-37v-10l1-1q-.7-2.2-4.5-1.5-34.2 22.8-64 50h-2l-2.5-2.5q-.9-3 3.5-1.5l28-23zM490.5 66q12.5 1 21.5 5.5l-2.5.5-4-2-15-3zM365.5 113l3 2 3-1 7 2 5.5 5.5q3.9 5.1 3.5 14.5l4-7q3-.5 1.5 6.5l-7 13.5-8.5 5-7 1-9-2-9.5-8.5-3-5 1.5-.5 7 8 4 3 .5-3h-2v-2q-2.7 1.1-2-1.5l-5.5-7.5-12.5 3.5 4 1-9.5 1.5-38 11-27 11-26 13-16 10-31 23-27.5 25.5-25.5 30.5q-1.3-2.2-6-1l7.5 8.5q2.9 3.9 2 10.5 2.7 1.1 2-1.5l2-1 1 6q-2.5 8-8.5 12.5-4.5 4.5-14 4l-6.5-2.5 3-1-9.5-5.5-2.5 1-5-7.5-1-10 8.5-12.5 9-5h12l1.5-1.5q18.6-27.4 43.5-48.5 35.8-32.2 82-54l42-16 43-10 1.5.5q.2-11.3 7.5-15.5zm-9.5 23-1 2q2 3 3 0zm2 3-1 2 5 3zm5 3-1 3 4 2q4-1 6 1l3-1-7-1v-2l-2 1h-2l2-1zM114 279l-1 6 4 7 8 5h6l-8-3q-8-4-9-15ZM660.5 168h9l1.5 1.5v13l3 13.5q-6.6-.5-10-5.5l-1.5-3.5-1 2-1-2q2.6.7 1.5-2l-10-4-1-2.5 1-2.5-2.5 1-3-4-1.5-.5zM679 169l6 4.5q4 5 4 14l-2 7.5-3 .5 1.5 2.5-8 1q-2.7-1.2-.5-2.5l2-7zm2 19-1 3h1zm-1 3-1 5h1zM732.5 218h16l2.5 1-1 6.5-7.5 12.5q.1-8.1-4-12l-8.5-5.5q-.7-2.2 1.5-1.5zM545.5 223l4.5 1.5q-1.2 2.7-2.5.5zM565.5 223l4.5.5-4.5.5zM551.5 224l5.5.5-5.5.5zM60.5 250l-1 2zM747.5 262l2.5 3.5-2-1zM750.5 267l1 2zM759.5 284l1 2zM728.5 285l-6 7-4.5 2v2.5l6 9 8 19 2 2 9 25 8 31 4 32.5q2.7 1.1 2-1.5h1q-2 6.9 2 5.5l-1-2.5 2.5-1.5 2.5 4q-2.7-1.1-2 1.5l1 2.5q-3.7-1.5-3 1.5l.5 1.5-2.5-1.5 2-4-4 1 1 3-1.5 2.5 9 2 10 7-1.5-2.5 1.5-1.5q2.3.8 1.5-1.5h1l.5 2.5.5-2 4 2.5 1.5 5.5 2-1v1q-2.2-.7-1.5 1.5 3.5.5 3 5l-1 2 1.5-.5 2.5 1.5-1.5 2.5q4.2 1.3 2.5-3.5h1v15l1 2-1 1-1 31h1l2-11v-8l1-1v-12l1-1v-46l-1-1v-10l-1-1-2-21-9-40h1l6 21 5 28 2 30 1 1 1 44-1 1-2 30-3.5 4.5h-8l-1-1h-33l-1.5-1.5.5-1.5q-3-.8-1.5 3h-4.5l-5 1h-18l-1.5 1.5-3 20-4 16-14 36-19 36-26.5 34.5q-2.2-.7-1.5 1.5L629.5 672l-3 2-14 12-5.5 2v-7.5l7.5-7.5 30.5-29.5q23.9-27.1 41-61l15-36 7-25 3-18 3.5-4.5 7 1 6.5-1 .5-2h8l4.5 1 2-19h-2q1.1-2.7-1.5-2l-3.5-2q1.1-2.7-1.5-2l-7.5-6.5q-3.6-5.4-2-16 3.8-11.2 12.5-17.5l9.5-3-2-5.5v-7l-3-15v-11l-3-15.5-2-.5 1-3-3-4-3-11-1-10-4-8-1-7-11-26 2-.5 8.5 17 .5-2.5-12-24 1-2.5zm.5 42-1 3h1zm8 22-1 3q4 7 5 17h1q-1-12-5-20Zm19 69q-2 3 1 2zm-6 16q-8 2-13 8 1 2-2 1l-5 12v4l6 10 5 4-1-1-2 1 7 4q3 1 2-2l5 2h4l9-4q6-6 9-16v-12l-1-2-4-4-3-3-1 1-1-1h-1q-4-4-13-2Zm34 9-1 3h2zM762.5 289l7.5 14.5 4 12h-1l-11-25zM116.5 297l1 2zM409.5 298l2 3z" opacity=".992"/><path fill="#e26419" stroke="#e26419" d="m119.5 299 2.5 1.5-3 .5zM420.5 308l1 2zM776.5 322l2.5 7.5h-1zM394.5 333l1 2zM780.5 334l2.5 8.5h-1zM398.5 337l1 2zM425.5 357q8.6-1.1 10.5 4.5l1 8-7 6v48l3 4-2.5-1.5-2.5-1.5v-40l1-1V375q-6.7 0-10-4.5l-1-7 4.5-5.5zM313.5 382l28.5.5-28.5.5zM517.5 382l41.5.5-41.5.5zM305.5 383l3.5.5-3.5.5zM347.5 383q9.9.6 14.5 6.5l-2.5-1.5-6-3-6-1zM503.5 383l3.5.5-3 1 4.5 4.5 1-1 2 1h44l1.5 1.5q-3.6 2.6-10 1.5l.5 2h2l1.5.5-2 6.5-2 .5 1 2.5-4 2.5q.8 2.3-1.5 1.5v1l3.5 1.5q-3.5 1.7-2 7.5l-2 .5 5 2 2.5 9.5h2q2.6.8 1.5-2.5h1q-.7 2.6 2 1.5l.5-3 .5 39.5 1 1v41l1 4-1 1v13l1 1 1 142 1.5 4.5 2-60 .5 63.5-3.5 3.5h-57l-1.5-1.5v-34l-1-1v-141l1-1-1-1v-20l1-8-1-1v-23q2.5-1.5 1-7l-1-1v-9l1-1v-13l-1-1v-15l1-3-1-12zm43.5 15-2 2h3q1-3-1-2Zm-42 278 1 2h27l-26-1zM13.5 390l.5 1.5-1.5 5.5-.5-5.5zM363.5 390l3 4zM627.5 391l.5 29.5 2 2q-3.7 4.3-2 14l-24 24v44L578.5 531h-14l-.5-4h13.5l15.5-15.5q-.7-2.2 1.5-1.5l2.5-4 3-1.5v-45l5.5-6.5 3.5-2.5 2.5-3.5 12.5-10.5 2-6z" opacity=".992"/><path fill="#e26419" stroke="#e26419" d="m548.5 416-.5 1.5-.5 1.5-.5-1.5zM764 420h3q-1.1 2.7 1.5 2h2l2-1q3.3 1.2 2.5 5-3.8 1-5-1.5l-.5-1.5-2 1-3.5-1zM748.5 439h7q8.1 2.9 12.5 9.5l2 9-6.5 8.5-12 5q-10.7-2.3-15.5-10.5l-3-6V450q2.7 1.1 2-1.5l5.5-5.5zm.5 29v1h3zM467.5 463l.5 112.5-13.5 13.5h-2l-1.5-1.5 13-13v-74q2.5-1.5 1-7v-2l-1-3 1-3-1-2 1-1V464zM744.5 507l4 3h34l5.5 1-1 2.5-2 18q-4.1 8.9-5 21h1l7-26 2-13 2.5-3.5.5 5.5-9 43-19 50-26 47-20.5 27.5 1.5-2.5 6-10-3 2q-17.1 25.9-39.5 46.5-15.4 16.6-35 29-6.8-7.7-18-11l-5-1H606v-16.5l3.5-.5v-1l-3.5-1.5q27.5-17.5 49-41 31.5-32.5 54-74l16-36 7-21v-4l9-32.5zm35.5 46-1 4h1zm-1 4-1 3h1zm-1 3-2 5 1 3 1-3zM428.5 543l1.5 3.5h-1zM432.5 553l1.5 3.5h-1zM435.5 561l1.5 3.5h-1zM437.5 566l31.5 82.5h-1l-25-64zM274.5 615l7.5.5-7.5.5zM469.5 650l1.5 3.5h-1zM471.5 655l7.5 18.5h-1l-5-11zM209 678l3 1.5-3 .5z" opacity=".992"/><path fill="#3a282b" stroke="#3a282b" d="m574.5 19-.5 1.5q.8 2.3-1.5 1.5l-4 5q-2.2-.7-1.5 1.5-8.5 6.4-13 15.5l-3 1.5-24 30-3 6.5q-2.7-1.1-2 1.5l-19 30-1 5-2 2-5 13q-11.7 12.3-19 29l-7 19-9 44 40.5.5 3-1 2 1 15-14 15-1v1l-5 1h-10l-14 14H459l8-42.5 11-29 16-23q10.3-27.7 26-50 24.1-34.9 54.5-63.5ZM584.5 28l2.5 1.5 5 12h-1q-2.4-8.6-6.5-13.5ZM594.5 49l1.5 3.5h-1zM683.5 50l-1 2zM680.5 52l-2 3zM675.5 56l-2 3-22 16-17 15 5-6zM695.5 60l.5 3.5h-1zM694.5 65l.5 4.5h-1zM600.5 66l2.5 7.5h-1zM693.5 71l.5 3.5h-1zM603.5 75l.5 2.5h-1zM692.5 76l.5 2.5h-1zM511.5 79l-1.5 2.5-9.5 14.5.5-1.5zM604.5 79l1.5 5.5h-1zM691.5 81l.5 4.5-1.5 5.5-.5-4.5zM606.5 86l1.5 4.5h-1zM609.5 95l2.5 6.5h-1q-3-2.5-1.5-6.5ZM499.5 97l.5 1.5-8 12-.5 3.5-34-8h-6l-6-2h-7l-9-2h-12l-3.5-1.5 4.5-.5 1 1 22 1 7 2h6l33 7 4.5-1zM688.5 97l.5 3.5h-1zM378.5 100l34.5.5-32.5.5-1 1-25 1-40 8-25 7-29 11-40 21v-1q30.5-19.5 68-32l40-11h5l19-4 25-1zM687.5 102l.5 3.5h-1z" opacity=".98"/><path fill="#3a282b" stroke="#3a282b" d="M374 105h46.5l1 1h12l1 1 16 1q9.3 3.7 22 4l15.5 4.5-4.5 6.5-8-3-31-6-30-2-1-1h-36l-2.5-1zM361.5 106h6.5v5l-6.5 2-16 1-29 6-44 14q-41.8 16.2-75 41l-.5-3h2.5l13-10q14.6-6.4 26-16l14-7 11-3 9-6 15-7 16-5 21-4 3-2zM356.5 117l-2.5 3.5-3.5 11.5-2.5-.5 1-5zM478.5 131l-1 2zM352.5 136l5.5 9 4 2v2.5l-3.5-2.5-2.5-1.5-5.5-6.5-2 1-2-1q-1.2 2.2-6 1v-1zM357.5 137q3.6 5.4 10.5 7.5l-1.5.5q-7.4-1.7-9-8Z" opacity=".98"/><path fill="#3a282b" stroke="#3a282b" d="m349.5 141 2 3-2.5-1zM352.5 145l4 5zM218.5 150l-2 3-11 7 2-3zM665.5 163q10.9-1.4 18 1l6.5 5.5 5 10-2-1-.5-1.5-1.5.5.5-1.5-1.5.5v12h-1q.3-14.2-8.5-19.5l-1.5.5v17l-1.5 6.5-.5-13.5q2.8-1.7 1-8l-1-4.5-3.5-1-1.5 1.5-.5 6.5q.6-4.6-2-6h-9l-17 4 1-2 3-2zM194 175l2 .5-9.5 6.5v-1l7.5-4zM109.5 184l-3 4zM696.5 197l2.5 1.5-1.5.5zM97.5 198l-2.5 3.5-1 4 2.5 3.5 15.5 12q-1.1 2.7 1.5 2l11.5 9.5-5.5 1.5-18-17-5.5-3-2-4h-4v-5.5l4.5-5.5zM86.5 211l-.5 1.5-20 31-17 32-11 25-11 33-7 27-6 34v6l-1 1-1 26-1 1v32l1 1 1 34 1 1 2 20 3 9 2 15 8 27 11 30 19 36 13 19 1 5.5q-2.7 1.1-2-1.5l-19-29-18-39-12-36-9-46 1-2-2-5v-2q-2.4-5.1-1-14l-1-1v-17l-1-1v-33l1-1 1-27 2-5v-2l1-6-1-2 9-46 15-44 19-41 17-26 3-7zM540.5 214l2 3zM521.5 217l-8 9zM730.5 221l9.5 6.5 1 3-4.5-3.5zM544.5 223l4 3 9-2h16l1-1h29l1 1h16l9 2h12l1 1h10l8.5 1.5-10.5.5-10-2-28-1-1-1h-31l-1 1-32 1-3.5-2.5zM664.5 229l2.5.5-2.5.5zM458 230l6 .5q-4.6-.6-6 2l-3 10-10 16v2.5l6.5 3 19.5 14.5-2.5-1.5-24.5-16.5 11-21zM440.5 238l.5 1.5-2 1zM438.5 242l.5 1.5-11.5 16.5-.5-1.5zM651.5 243l3.5.5-3.5.5zM633.5 244l10.5.5-15.5 1.5-1 1h-8l-5 2-18 2q-8.3 3.7-20 4l-8 3h-4l-19 6-1-2 8-1 18-6 14-2 3-2 11-1 17-4 17-1zM736.5 253l.5 1.5-5 9.5-8 5.5-9.5 11.5-13 7-39 7q-8.1 2.9-12.5 9.5l-1.5 2.5.5-1.5q.7-6.3 5.5-8.5l14-6 19-2 4-2 7-1 14-6 8.5-7.5 5-8-.5-1.5q6.9-1.6 9.5-7.5zM666.5 255l4.5.5-23.5 5.5v-1zM643.5 261l2.5.5-35.5 11.5-17 7-6 4-6 1v-1l39-16zM440.5 264h2l9.5 7.5-2.5-1.5-8-5-11 13-22.5 17.5 25.5 23.5 2.5.5-2.5.5-5.5-4q1.1-2.7-1.5-2L406 295.5q16.4-10.1 29-24zM454.5 273l4.5 3.5-2.5-1.5zM460.5 277l1 2zM500.5 278l9.5.5-9.5.5zM113.5 279q1.2 10.8 9 15l8.5 2.5-6.5.5-7.5-5.5-4-7zM463.5 279l4.5 3.5-1.5-.5zM472.5 279l11.5 7-.5 2-9-6zM522.5 283l3 4zM504.5 285l2.5.5-2.5.5zM527.5 288l2 3zM521.5 292l1 2zM112.5 293l1 2zM116.5 295l9.5 5.5-3 1q1.4 2.6 6 2l-4.5.5-4.5-2.5 2-1-2.5-1.5-1 2-4-5zM713.5 295l1.5.5v2l10 20 2 7h-1l-9-18.5-2 .5 11 26 1 7 4 8 2 14 5 13-.5 1.5q2.6-.8 1.5 2.5l3 13v11l3 15v7l2 5.5-3.5 1 .5-1.5-2-24-1-1-2-17-8-30-12-31-8-15-4.5-5.5-16 6h-5l-8 3-14 1 .5-1.5 2.5-4.5 22-4 16.5-5.5-2-1 1.5-.5 2.5 1q-1.1-2.7 1.5-2zM524.5 296l1.5 2.5h-1zM398.5 299l1.5.5-3.5 1.5v-1zM526.5 300l.5 2.5h-1zM393.5 301l1.5.5-7.5 3.5 1-2zM377.5 307l1.5.5-6 4 31 29 1 2-17.5-16.5-16.5-15.5zM360.5 312l3.5.5-60.5 17.5-26 11-40 23-24.5 20.5 1.5 2.5q2.3-.7 1.5 1.5l9 7.5 1.5 3q2.3-.7 1.5 1.5l10 9 5.5 6.5 1-1h25l5.5 1 8-18.5 8.5-9.5 15-7h43q13.9 3.6 21.5 13.5l5 6 8 17 53 134 5 18 6 14 2.5 2.5 3-2-2.5 3.5 2 3-1 4 16 39 3 11 2 2 9 32-2.5 3.5-62-1-3.5-2-7-15.5-16-43-2.5-2.5h-130l-.5 1.5-19 48q-2.5 8-8.5 12.5-4.6 2.9-13 2l-1-1H165l.5-2 1 1h16l3-1 5 1 1-1 15.5-.5-7-1 24.5-.5v1q-7.5-1.5-10.5 1.5l13.5.5 5.5-4.5 24.5-59.5 1.5-.5-2-1 12.5-.5 1-1h14l6.5 1.5-4 1 15.5.5v-1l-4.5-.5 40.5-.5 1-1 1 1h18l1 1h2l5-1h19l6.5 4.5 18 45 2 8 5.5 7.5 2 1H480l-2-10.5-9-20-8-24-18-45 .5-1.5q-2.6.8-1.5-2.5l-19-47-1-6-8-17-3-9v-5l-5-13.5q-3 1.3-2-2.5l-3-5 1-2-14-34-10-29q-4.7-10.3-13.5-16.5l-14-7h-8l-1-1h-28l-1 1-11 1q-8.8 3.7-14.5 10.5l-9 16-25 61-10 21-6 17-5 9-11 29-6 13-2.5 2.5-2-1H120l3-21.5 2-7 2.5-2.5h47l3.5-3.5 24-41 1-4-6.5-7.5-1.5-.5 3-.5 6 7.5v4L175.5 532h-24l-1 1h-21l-2.5-1-4 14.5-2 14.5h92.5l.5-1.5 59-139-3.5-.5-4 1v-1l4.5-1-1.5-3h-21l-4 1-3.5-2.5-28-30q11.6-12.9 26.5-22.5l41-23 24-10zM275 615v1h7zm-66 63v2h3zM26.5 315l.5 2.5h-1zM25.5 320l.5 1.5-1.5 2.5-.5-2.5zM444.5 320l14.5 13.5-10.5-9.5z" opacity=".98"/><path fill="#3a282b" stroke="#3a282b" d="m727.5 326 2.5 4.5-2-1zM22.5 328l.5 2.5h-1zM406.5 343l14 14h3l1-1h8q6.8 2.7 6.5 12.5l-4.5 5.5-4 2 1-2 5.5-4.5q1.4-9.4-4.5-11.5l-7-1-4 2zM736.5 349l3.5 8.5 3 13h-1l-3-12-2-3zM610.5 363l.5 2 9 7.5-6.5-5.5-3.5-2.5zM11.5 369l.5 4.5-3 11L7.5 398l-.5-6.5zM500.5 386q2.5 4.5 1.5 12.5l-1 3 1 29-1 1v9q2.5 1.5 1 7l-1 1v23q2.5 1.5 1 7l-1 2v20l1 1-1 1v141l1 1v34l1.5 1.5h57l3.5-3.5.5-16.5.5 17.5-2 3.5-2.5 1-40.5.5 23 82 5 15 8.5 12.5 10.5 3.5-4.5.5q-7.4-2.6-11.5-8.5l-7-16-17-57-3-14-3.5-7.5-4 1-2.5-1v5.5l5 18h-1l-6-26 1-3-1-4 .5-1.5q-8.2 1.3-11.5-2.5l-1-2v-188l-1-3q2.2-1.3 1-6l-1-2 1-2-1-3q2.2-1.2 1-6l-1-2v-2l1-31-1-2 1-1zM207.5 388q3.8-.7 4.5 1.5l2.5 3.5 5 4 17.5 17.5v2.5h-53.5l-.5-1.5zm1.5 1-21 23-3 4h50v-2l-4-3-2-4q-3 1-2-2h-1zM430.5 392l1.5 2.5v31l3.5 3.5 3.5 2.5q-.7 2.3 1.5 1.5l28.5 28.5v114l-15 14 14-14v-114l-37-36q-2.7-3.8-1-12l1-1v-11l-1-2 1-2q-2.3-1.4-.5-5.5ZM6.5 399l.5 2.5H6zM653.5 418l.5 1.5-1 2.5-24-.5 23-.5zM179.5 420l84.5.5-83.5.5-2.5 2.5-17 25-13 25.5 22 .5-23 .5q12.1-31.1 32.5-55ZM160.5 430l-.5 1.5-4 9.5q-3-1.2-2 2.5l-1 2.5q-2.7 1.1-2-1.5zM651.5 431l.5 1.5-4 17-12 32-9 18-21 34q-6.3 10.2-9 24l-2 21-1 1-1 31-1 1v96l1 1v21l1 1-2-1v-16l-1-1v-56l-1-1q2.5-1.5 1-7l-1-2 1-1 1-60 1-1 1-16 4-20 5-13 22-35 10-20 10-26 5-18v-4zM46.5 432l10.5 2.5-9.5 1.5-15 10 .5-1.5 5.5-8.5zM765.5 436l7.5 6.5 1 5h-1zM325 442l4 1.5 44 120-95 .5 3-12.5zm1 16-3 3q1 2-3 1l-32 79-2 8-5 9v3l5 1q5 2 7-1h55l1 1 16-3-1-2h2l-1-6-2-2v-4l-2-3 1-2q-3 1-2-1l1-2q-3 1-2-3-4-2-1-3 1-3-1-2v-1l-3-11-3-4-1-6h-1l-1-2v-2q-1-8-6-11 1-5-2-4l-1-3q1-5-2-4l-1-5 1-3-1-1q-3-1-1-2 1-3-2-2l-3-7q1-4-1-3v4zM35.5 450q-.5 11.5 7 15 4.5 3.5 12.5 3.5-1.6 2.9-7 2l8.5.5 8-3-2 3-6 3h-8q-8.7-2.8-13.5-9.5l.5-1.5 4 5 7 2v-1l-8.5-5.5q-4.9-4-2.5-13.5ZM732.5 450q1.9 12.6 11 18l7.5 2.5q-.7 2.3-4.5 1.5-6.7-2.2-10.5-7.5l-4-8zM147.5 452v3q-2.2-.7-1.5 1.5l-4.5 7.5.5-1.5zM604.5 461l.5 6.5h-1zM139.5 467l-.5 1.5-1.5 3.5.5-1.5zM728.5 468q2.4 4.4 7.5 5-1.1 2.7 1.5 2l3.5 2v2q2.7-1.1 2 1.5l-1.5-.5-10.5-7.5z" opacity=".98"/><path fill="#3a282b" stroke="#3a282b" d="m748.5 468 3.5.5-3.5.5zM757.5 468l1.5.5-4.5 1.5v-1zM737.5 471l9.5 4q1.3 3-2.5 2-5.5-1.8-7-6ZM181.5 473l3.5.5-3.5.5zM134.5 477l.5 1.5-2.5 5.5-.5-1.5zM145.5 478h50l.5 1.5 3 6-25.5 42.5h-40l-6.5 1q5.8-28.4 18.5-51Zm-.5 1-14 37-3 11h45l25-42-2-4-1-2zM129.5 485l2.5 1.5-2 4 .5 1.5q-3.4-.9-1.5 4.5l-2 4-4.5 13.5-1.5-3.5 7-19-1-3zM604.5 495l.5 9.5h-1zM748 500l2 .5q-2.3 1.2.5 2.5l33.5.5-36.5.5-5.5 4q1.1-2.7-1.5-2l-1-1-19.5-.5 18.5-.5 6-2 3.5 1zM603.5 506l-12 13zM120 515q3-1 2 2-3 1-2-2ZM565.5 517l.5 3.5h-1zM7.5 520l.5 2.5H7zM582.5 521l-5 6-3.5-.5q6.9-.1 8.5-5.5ZM587.5 522l-1 2zM8.5 525l2.5 13.5h-1zM116.5 530l1.5.5-9 38v6l-3 13-1 16-1 1v11l-1 3.5q-3 1.3-2-2.5-2.5-1.5 1-3l1-18.5q3 1.3 2-2.5-2.7-1.7-1-8l2-3-1-4 4-16 1-12 3-12zM11.5 540l.5 3.5h-1zM14.5 554l3.5 8.5 3 13 13 34 14 27 16 24q-2 3.5-4-1l-23-40-14-35-8-25z" opacity=".98"/><path fill="#3a282b" stroke="#3a282b" d="M146.5 565q3.8 2.7 12 1 1.5-2.5 7-1l1 1h37l1-1h7.5v3.5l-17 41-29.5 67.5-.5-1.5 46-108-92-.5-1 14.5-2 7v9l-1 1-1 38-5.5 5.5L82 661l-1.5 3-2.5 1.5q-14 13.5-23 32l-6 21-1 21 3 16 8 18.5 38.5-26 8-4-1 2-31 19-11.5 9.5 2.5.5 14-10 4.5-1v1.5L98.5 781q12.2 11.2 27.5 18v28.5l-3.5.5-23-12L83 805q1.1-2.7-1.5-2-17.9-15.1-28.5-37.5l-6-22v-23q3.3-19.2 12-33 11.2-17.3 26.5-30.5l26.5-19.5 1-2 1-41 1-1v-8l1-1v-7l2-11.5h27.5zM81 765l-19 13 9 13q21 23 53 36h1v-26q-17-10-30-22l-8-8zM463.5 573l.5 1.5-9 8q-.7-2.2 1.5-1.5z" opacity=".98"/><path fill="#3a282b" stroke="#3a282b" d="M96.5 598q2.6 2.4 1.5 8.5l-2-1-2-5 3 1zM369.5 629q4.5-1 5.5 1.5l10 20 5 15 2 9v16l-6 19-12 17.5-2 .5 30 1-31.5.5 3.5-4.5q8.1-8.4 13-20l4-15v-15q-5.5-25-17.5-43.5l-5.5-.5zM404.5 643l2.5 6.5h-1zM564.5 643l.5 8.5h-1zM70.5 659l.5 1.5-6.5 7.5 2.5-3.5z" opacity=".98"/><path fill="#3a282b" stroke="#3a282b" d="M384.5 668q3.2 8.3 1.5 21.5l-1.5 4.5-.5-3.5 1-1v-16q-2.4-1.4-.5-5.5ZM63.5 669l-1 2zM417.5 675l2 2 18.5.5-18.5.5zM169.5 676l1 1 27.5.5-29.5.5zM504.5 676l2 1 26.5.5-27.5.5zM52.5 685l-.5 1.5-5 10-1 6q2.2 1.3 1 6l-3 14v19l3 15 8 19q8.5 16 22.5 26.5l18 15 11 7 15 6 2 2h3l7.5 4.5-1.5.5Q92.7 822.3 66 794.5q-15-16-22-40l-3-14v-24l3-16zM383.5 695l.5 2.5h-1zM117.5 698l2.5 1.5v11l4 15q6.5 14.5 18.5 23.5 11.2 8.3 25.5 13.5l-1.5.5q-21-7.5-34.5-22.5-7.5-8-11-20l-2-10V700l-3 1.5-7 14v10q6.1 19.9 21.5 30.5 11 8.5 25 14l24 8 19.5 4.5-2.5.5-35-9-29.5-13q1.1-2.7-1.5-2l-9.5-7.5q.8-2.2-1.5-1.5L109 735.5q-3.5-6.5-2-18 2.8-12.2 10.5-19.5ZM382.5 699l.5 1.5q-8 19.5-22.5 32.5l-.5-1.5q15.2-12.3 22.5-32.5Z" opacity=".98"/><path fill="#3a282b" stroke="#3a282b" d="m178.5 717 126.5.5-126.5.5-29.5 28.5q-1.1 3.3 1.5 2.5l29-28h49l4 1h2l9-1 2 1h2l9-1h2l4 1 3-1h2l4 1 2-1 1 1h31l30.5 29.5q-.7 2.6 2 1.5v2h1.5l3.5 5 4 2.5q-.7 2.3 1.5 1.5 3.3 1.2 2.5 5l-14.5 3-21 2v-1l20-2 13.5-3-7-10h-1.5l-35-35h-114l-2-1h-2l-9 1-13 13H164l-1.5 3-5.5 4.5q.8 2.3-1.5 1.5l-2.5 4-3.5 1-1.5-3.5z" opacity=".98"/><path fill="#3a282b" stroke="#3a282b" d="m306.5 718 51 49 17-4v1l-19 4-4.5-6h-2v-2q-2.7 1.1-2-1.5l-13-12-26.5-27.5zM519.5 718l3.5 12.5h-1zM475.5 721h20l12 5 6.5 6.5 4 8 2 13-2 12.5 12-3-3-17.5-4-13h1l7 25v6l-1.5 1.5-14 4 .5-1.5q3.4-7.6 2-20-2.4-12.1-10.5-18.5l-15-7h-16l-13 4-35 19-10-11q-5.2-3.7-13.5-4.5l4.5-.5q9.6 2.9 15.5 9.5l3 5.5 37.5-20zM362.5 735l12.5.5-12.5.5zM379.5 735l21.5.5-21.5.5z" opacity=".98"/><path fill="#3a282b" stroke="#3a282b" d="m460.5 736 1.5.5-27.5 16.5-28 12-14 4v-1q38.8-11.2 68-32ZM413.5 739l1 2zM420.5 746l.5 1.5-2.5 2.5-16 6-26 7v-1l17-4 26.5-10zM106.5 747l1.5.5L86 761q-1.5 3.8 1.5 3l11 12q13.5 13.1 31.5 21v31.5l1.5 1.5 25 8 17 4h5.5l3-9.5-1-3 2 1-3 13.5-25.5-5-26.5-9v-6.5l1-1v-24L106.5 784 84 762.5q-.7-2.2 1.5-1.5zM511.5 759l.5 3.5q-4.5 13.5-14.5 21.5l-22 15-37 17-37 13-45.5 11-3-30.5h1v7l2 7 1 14.5h5.5l20-6 8-1 45-15 41-19 22.5-16 8-10.5zM169.5 763l25 7 23.5 3.5-6.5.5-31-6-11-4zM388.5 769l2.5.5-16.5 4.5v-1zM219.5 774l27 1 1 1h39l1-1 25-1v1l-24 1-1 1h-45l-1-1-22-1zM370.5 774l2.5.5-2.5.5zM365.5 775l3.5.5-7.5 1.5v-1zM357.5 777l2.5.5-2.5.5zM648.5 777l.5 2.5h-1zM352.5 778l3.5.5-6.5 1.5v-1zM642.5 778l.5 4.5-5 9.5-8.5 4h-40v-1h39q6.9-1.5 10.5-6.5zM343.5 780l2.5.5-2.5.5zM332.5 782l2.5.5-2.5.5zM207.5 783l17.5 2.5-8.5.5q-1.5-2.5-7-1zM322.5 783l4.5.5q-5.2 2.8-14.5 1.5v-1h9zM349.5 783l1.5 2.5 1 14h-1zM346.5 784l7.5 55.5-1.5 1.5h-5l-24 5-16 1-1 1h-11l-1 1h-10l-1 1h-57l-1-1-24-1-1-1h-7l-11.5-2 3-13h9.5l8.5-5.5 3.5-5.5 12 1 1 1h14l1 1 56.5.5-57.5.5-1-1h-15l-11.5-2q-.8 6.1-6.5 9-4 3-11 3-1.2-2.3-2.5.5l-2 9.5 12.5 2h8l1 1h9l1 1h11l1 1h54l1-1 20-1 1-1h9l1-1 21-2 18.5-4-3-16.5-3-29-1-1zM302.5 785l7.5.5-7.5.5zM227.5 786l2.5.5-2.5.5zM285.5 786l2.5.5-2.5.5zM294.5 786l5.5.5-5.5.5z" opacity=".98"/><path fill="#3a282b" stroke="#3a282b" d="m198.5 787 .5 1.5-4 10v3.5h-9.5l-9.5 7.5q-3.2 3.3-2 11l6 9-5-4q-3.9-2.6-3-10 2.1-7.4 7.5-11.5l6-3q6.8 1.8 8.5-1.5zM202.5 787l.5 1.5-5 13 6 5 2 4h-1l-5.5-6.5-2.5-1.5 4-14zM261.5 787l17.5.5-17.5.5zM319.5 787l1.5 29.5-3.5 2.5h-10l-1 1-51 2-1-1h-24l-1-1-14.5-.5 15.5-.5 1 1h60l1-1 25-1 2.5-1v-10.5l-1-1z" opacity=".98"/><path fill="#3a282b" stroke="#3a282b" d="m322.5 787 1.5 3.5v22l1 5-2 3.5q-4.6 3.1-14.5 2v-1q10.4 1.4 14.5-3.5v-28zM654.5 788l.5 1.5-2 1zM645 789l2 .5-1 2.5-3 1.5.5 1.5-6 4 3-4q2.3.8 1.5-1.5zM652.5 792l.5 1.5-7.5 8.5 3.5-4.5zM571.5 796l10.5.5-10.5.5zM547.5 798l5.5 2.5-2.5.5-4-1-19 8-25 6-16 1-1 1h-25l-5-1-14 7-6 1-5 3-29 9-3 2-51 12h-6l-21 4-18 1-1 1h-16l-1 1h-51l-1-1-21-1-1-1h-8l-13.5-2.5 5.5-.5 9 2 27 1 1 1h50l1-1h14l1-1 25-2 51-9 37-10 37-13 7-4 9-2 1 1h22l1-1 13-1 21-4zM352.5 801l.5 6.5h-1zM554.5 801l4.5 1.5-2.5.5zM590.5 803l2.5.5-2.5.5zM185.5 806h7l6.5 4.5q3.8 2.2 3 9l-4.5 6.5q-3.3 3.2-11 2l-7.5-6.5-1-8 5.5-6.5zm1.5 1-2 1-6 7q-1 5 2 8l6 4 9-1 4-4 1-4-1-4-7-7z" opacity=".98"/><path fill="#3a282b" stroke="#3a282b" d="m548.5 809 2 4 .5-2q3.7-1.5 3 1.5l3 1.5q-1.1 2.7 1.5 2l1-1h11l3 1 1-1h36l3 1 11.5.5-16.5.5-1 1h-50l-14-3-22 9-18 4-22 2-1 1h-26l-3-1-36 15-28 7-3 2h-2l-19 5h-5l-16 4h-6l-4 2-22 2-1 1-23 1-1 1h-60l-1-1h-12l-1-1h-9l-6.5-1.5 5.5-.5 1 1h11l1 1h15l16 1 2-1 3 1 2-1 1 1h14l10-2 24-1 1-1 15-1 1-1 14-1 6-2 18-2 25-7h4l4-2h4l25-9 6-1 22-9 8-5h30l1-1 19-1 18-4 4-2h4l14-5zM470 827q-2 3 1 2zM206.5 812l1.5 6 6 .5-7 .5zM293.5 823l13.5.5-13.5.5zM91.5 831l1 2zM96.5 834l5.5 3.5-1.5-.5q-4-.5-4-3ZM105.5 839l2.5 1.5-1.5-.5zM144.5 840l2.5.5-2.5.5zM109.5 841l8.5 4.5-1.5-.5q-6.5-.5-7-4ZM151.5 842l2.5.5-2.5.5zM155.5 843l15.5 3.5-2.5.5-13-3zM172.5 847h6q3.3 2.8 9.5 2.5l-6.5.5-9-2zM138.5 853l13 4 15 2 13.5 4.5-2.5.5-31-7-8-3zM183.5 864l2.5.5-2.5.5zM188.5 865l4.5.5-4.5.5z" opacity=".98"/><path fill="#091f3b" stroke="#091f3b" d="m572.5 22-2 3zM567.5 27l.5 1.5-8 8-33 43q-16.5 23.5-27 53l-16 22-11 27-6 29v5l-2 6.5 2.5 1 2-1 3 1 3-1 2 1h18l1 1h9.5q1.1 2.7-1.5 2l-3-1-1 1h-40l.5-1.5 5-29 2-5v-5l8-23q7.3-16.7 19-29l5-13 2-2 1-5L522 82q2.7 1.1 2-1.5 12.8-19.7 28.5-36.5 2.3.8 1.5-1.5zM668.5 62l-1 2zM658.5 70l-1 2zM655.5 72l-3 4-5 4 4-5zM667.5 162l9.5.5-9.5.5zM661.5 163l3.5.5-16.5 4.5v-1zM673.5 166l3.5 1 1 11.5h-1l-1-9.5-3.5 1-.5-2.5zM645 168l2 .5-2 1zM690.5 170l1 2zM690 176l3 1.5.5 1.5 1-2 .5 1.5-.5 1.5q3-.9 1.5 3.5l4 12h-1l-6.5-16.5-1 2zM692.5 184l1.5 2.5-2-1zM520.5 211l7.5.5-8.5 1.5zM580.5 225h31l1 1h15l1 1h12l8.5 1.5-14.5.5-5-1h-53l-1 1-27.5 1-2-3.5 1.5.5 32-1zM736.5 227l2 3zM459.5 231q3.3-1.1 2.5 1.5l-12 26 33 24-1.5-.5-3-1 2 3 2.5 1.5-1.5-.5-33-23-3.5-1v-2.5l8-12zm15.5 47 2 3h1zM644.5 244l6.5.5-7.5 2.5-22 2-9 3h-5q-10.8 4.2-25 5l-38 10q-2.2-.7-1.5-4.5l2.5 1.5 31-9 10-1 5-2h8l4-2 11-1 5-2 17-1zM662.5 257l1.5.5-4.5 2.5-40 12-38 16-1.5-3.5 1.5.5 6-1 6-4 28-11zM729.5 260l-1 2-5.5 2q-1.3-3.3 3.5-2zM441.5 265l-.5 1.5-2 4-12.5 12.5-14.5 10 7.5 9 7.5 6.5q-.7 2.3 1.5 1.5 2.8 5.3 9.5 6.5-2.3 1.3.5 2.5l6.5.5-8.5.5-3-1-25.5-23.5 25-20zM500.5 277l15 1 6.5 4.5-1.5-.5-11-4h-9l-3 1v-1zM485.5 282l-1 2zM524.5 284l1 2zM696.5 284l4.5.5-13.5 4.5-13 1-13 3-10 7 .5-1.5 4.5-6.5 9-4 18-1zM373.5 311h3l5 4 24.5 23.5 1.5 2.5 2.5 1.5 1.5 2.5q2.6-.8 1.5 2.5l9.5 7.5h7q5.4-.6 7.5 1l3 4.5 1 6-1 3.5-2-.5 1-5q-1.4-6.1-6.5-8.5l-12 1-16.5-15.5-1.5-2.5-25-23zM446.5 319l5 3 16.5 16.5-1.5-.5-9.5-7q1.1-2.7-1.5-2l-3.5-2q1.1-2.7-1.5-2-4.1-2.3-4-6ZM329.5 322l1.5.5-14.5 4.5v-1zM310.5 328l1.5.5-28.5 11.5-23 12q-24.2 13.8-43.5 32.5l1.5 2.5 10.5 9.5q-.7 2.3 1.5 1.5l9.5 9.5v1.5h2q-1.1 2.7 1.5 2l3 1h24l2.5-2.5 2-5 12.5-14.5 6-4-1 2-6.5 5.5q-7.4 10-11 22.5l-5.5-1h-25l-1 1-5.5-5.5-7.5-8.5-2.5-1.5q.8-2.2-1.5-1.5l-1.5-3-9-7.5q.8-2.2-1.5-1.5l-1.5-2.5 24.5-20.5 26-16 30-14zM296.5 384l1.5.5-2.5 1.5zM208.5 389l14.5 13.5-2.5-1.5q-2.2.8-1.5-1.5h-1l-.5 1.5-.5-1.5.5-1.5q-2.2-.7-1.5 1.5l-1.5-.5-2.5-1.5q.7-2.6-2-1.5v-2.5h2l-1.5-2.5-8.5 11-4 2.5-5.5 7.5-1.5.5 4.5.5 2-1h2l4 1q1.7-2.8 8-1l2 1h2l3-1 1 1 14 1-1-3q3.3 1.2 2.5 5l-51-.5zm5.5 5q-3 4 1 3zM499.5 389l.5 40.5-1 2 1 1v9l-1 1v23l1 7-1 3 1 2-1 2q2.2 1.3 1 6l-1 3 1 1v188l2.5 3.5 10.5 1.5-1 4 1 3-1 4 3 11h-1l-2-9-1.5-1.5-15-1-3.5-3.5-1-3v-164l1-1v-18l-1-3 1-2v-59l1-2v-2q1.3-4.7-1-6l1-2-1-4 1-4-1-1v-20zM228.5 407l2 3zM432.5 412l.5 11.5 2.5 3.5 4 2 14.5 14.5 6 7 2.5 3.5q4-.5 4.5 2.5l2 4-28.5-27.5q-2.2.8-1.5-1.5l-7-6zM269.5 420l3.5.5-9 19-1 5-19 45-2 2-5 15-23 54.5h-92.5q-1 0-.5-4.5l6-24.5 2.5 1h19l3-1h24l2.5-2.5 16-29 10-15v-4l-6-7.5h-9.5l-2-1h-2l-4 1-2-1-3 1h-27l-.5-1.5q13.6-28.4 32.5-51.5l65.5.5-14.5 1.5h-4l-5.5.5 5 .5-2 5-3.5-1 2 3q2.3-.7 1.5 1.5l-1.5-.5-2-1-.5 1.5 1 2.5-2.5-1-.5 1.5 1 2-1 2 2 3.5-2.5-1-.5 5.5 1.5 2.5-1.5.5 2 .5q1.1 2.7-1.5 2l-1 2 2-1 .5 2-5 3.5 3 .5 2 6-2.5-1-1.5 4.5 2 .5q-1.1-2.7 1.5-2l-.5 1.5 1.5 2.5 3-1v1l-2.5.5 4 6-3 5.5 2.5-1-1.5 2.5 1 4-3 1.5 1.5 4 2.5 1.5-1 3 2 9.5 4-1.5 37-86.5zM215 440q0 3-2 2v1q3 1 4-1zm2 10q-2 3 1 2zm-4 9q-2 3 1 2zm3 2-1 3q-4-1-3 2l5-2zm5 23 1 2q1-3-1-2Zm1 35 1 3 1-2zm-12 35-3 1 1 2 2-1z" opacity=".992"/><path fill="#091f3b" stroke="#091f3b" d="m228.5 426 .5 2-2-.5zM218.5 458l2.5 1.5-1.5.5zM325.5 458l3 4 .5-2.5-.5-1.5q2.6-.8 1.5 2.5l3 7.5q2.7-1.1 2 1.5-2.2 1.3.5 2.5l1.5.5-1 3 1 5.5q3.3-1.3 2 3.5l1 3.5q3.3-1.3 2 3.5 4.7 3.8 6 11v2l.5 2.5 1.5-.5 1 6 3 4 3 11-.5 1.5q2.3-.7 1.5 1.5-2.5 1.5 1 3-1.5 4.4 1.5 3.5l-.5 1.5q-.7 2.3 1.5 1.5l-.5 1.5q2.8 2.3 2.5 7.5l1.5-.5v2l1 6-1 2.5-10 1-28-80.5-5-11.5q-3.7-1.5-3 1.5l-9 20-27 71.5q-3.3 1.3-2-3.5l5-9 2-8 32-78.5q3.7 1.5 3-1.5zM469.5 475l.5 9.5h-1zM145 479h49.5l1.5 1.5 2 4-25.5 42.5-44.5-.5 3-11zM629.5 490l-.5 1.5-5.5 10.5.5-1.5zM224.5 492l1.5.5-2.5 1.5zM621.5 505l-1 2zM616.5 513l-.5 1.5-12.5 20.5.5-1.5zM469.5 536l.5 30.5h-1zM602.5 536l.5 1.5-1.5 2.5-.5-1.5zM441.5 564l4.5 12.5h-1l-4-10zM119 567l92 .5-33 77-1 5-10 21-2 5v5.5h51.5q1.7 2.7 8 1 7.4-1.1 10.5-6.5l12-27 11-30.5h130.5l2.5 2.5 16 43 7 15.5 3.5 2 62 1 1.5-.5-8.5 9.5-4 2h-23l-3 1-2-1-1 1h-23q-9.4-1.1-13.5-7.5-10.3-20.7-17-45l-7.5-11.5-1.5.5 11 22 5 15q-1.2 4.7 1 6v17l-5 19-8 12v2.5l5.5-1h15l14 3q8.4 3.6 13.5 10.5-.9 3 3.5 1.5 14.6-10.4 32-18l12-3h15q14.1 2.9 22.5 11.5l8.5 13.5 1-7 3.5 10.5 3 17.5-12 3 2-13.5-3-15-9.5-11.5-12-5h-20l-10 3-37.5 20-5.5-8-13-7-37.5-1.5 2-.5 9-12.5 5-10 4-14v-16l-7-24-2-2-6-15-3.5-4.5-5 1h-86l-1 1-3-1-3 1-2-1-1 1h-14l-1.5 1.5-2 7.5 7-2q-1.1-2.7 1.5-2l1 3 2.5-.5-.5-1.5q2.3-.7 1.5 1.5l2 1q-.7-2.6 2-1.5l-1 2.5 3 1-2.5.5q-1.2-2.2-2.5.5l5 2-5 1 5 1-4 2 4.5 3.5.5-2.5-.5-1.5q3.8-1.2 2.5 2.5l.5 1.5-1.5-.5 2 3 4.5 3.5 1-2 2.5 1.5-3 1 1 3.5 2-.5q-2.2-1.3.5-2.5l.5 2 2.5-1-.5 1.5-.5 1.5-1.5-.5 2 3 3.5 2.5-2.5-3.5q-.7-2.6 2-1.5l2 3.5v3.5l-3 1.5 1.5.5 2.5-1 .5-2 .5 2.5q-2.2 1.3.5 2.5l2-5q2.8 1.3.5 2.5l2.5 4.5 2-1 .5 3 2.5-1 3.5 5.5v2l1.5 2.5q2.3.8 1.5-1.5l-1.5-2.5 2 1 1.5-.5-1 2.5q2.7-1.1 2 1.5l-1 2 1.5-.5 2-1 3.5 6.5-.5 1.5 2.5.5-1 2.5-2 .5 6 3.5 1 2.5-.5 3.5q2.3.8 1.5-1.5l2.5-1.5v1q-2.2-.7-1.5 1.5l.5 1.5-1.5-.5 1 3.5 2 .5-1 2.5h2q-1.1-2.7 1.5-2l1.5-.5-2 4 2 .5q-1.3 4.1 2 3l1-3.5-.5-1.5q2.8 1.3.5 2.5l-2 5 2 1 1.5-2.5h2.5q-1.1 2.7 1.5 2l-1 2-.5-2q-4.9-1.6-3 4 2.7-1.1 2 1.5l1.5-.5 1.5.5-1 2v2q-.7 2.6 2 1.5v2.5l1.5-.5 4.5 2v2q-2.7-1.1-2 1.5h2l-1 3 2-1 .5-2.5 3.5 2.5q-1.1-3.3 1.5-2.5l1.5.5.5-1.5.5 3-3 1.5 4 1-5 3 2 4.5 3 .5-3 .5q-1.3 4.1 2 3l.5-2 .5 1.5-2.5 1.5-5-1 .5 1.5 1.5 2.5 6-3 4 1 4-2h2l28-7 13-5h4.5l-1-2.5 3 2q1.1 3.3-1.5 2.5l-5 3-6 1-14 6-37 9-49-49-3-1h-126L148 746.5l1.5 3.5 3.5-1 2.5-4q2.3.8 1.5-1.5l7-6q-.7-2.2 1.5-1.5l13-13 9-1h2l2 1h114l35 35h1.5l7 10-13.5 3h-7l-14 3h-11l-1 1-55 1-1-1-28-1-41-8q-17.1-5.4-31-14L131 737.5l-8-15-3-12v-11l-1.5-1.5-1.5-.5 1-2-1.5.5-10.5 9.5-6 14v14l3 7 3 3L59 774q-6.7-11-10-26.5l-1-23 4-19 5-12q9.2-16.8 22.5-29.5l2.5-1.5q-.7-2.2 1.5-1.5l30.5-24.5 1-38 1-1v-9l2-7zm43 1-1 1q-3-1-2 2l-1-1h-24l-1 1-9 1h36l4 3 3-1h37l1-2-1-2h-39zm92 73q-1 3 2 2 1-3-2-2Zm28 18q-2 3 1 2zm30 29 1 2h1zm12 16q-1 3 2 2 1-3-2-2Zm-1 21v3l5 3 2-3-2 1v-1zm15 16 1 2q2-1 1 2l14 13v-2l-4-4q1-3-1-2l-4-5q-3 1-2-2zm16 6-1 2h4zm167 16-2 2h2zM452.5 592l26.5 67.5 4 12v5h-1l-9-30-2-2-8-24-6-12-5-14zM590.5 639l.5 6.5h-1zM590.5 648l.5 6.5h-1zM590.5 656l.5 7.5h-1zM67.5 662l-.5 1.5-4.5 6.5q-2.2-.7-1.5 1.5l-3 2zM590.5 665l.5 20.5h-1zM565.5 666l.5 5.5h-1z" opacity=".992"/><path fill="#091f3b" stroke="#091f3b" d="m384.5 673 .5 5.5h-1zM57.5 675l-.5 1.5-13 24-1 7q-3.5 3-3.5 9.5l-.5-4.5 5-18L55 676zM564.5 678l-.5 1.5q-2.6 7.4-8.5 11.5l-4 2H526l27 83.5q2.6 7.4 8.5 11.5l9 3h58l7.5-4 3.5-10 1.5 7.5-5.5 7.5-7 3-61 1-11-4-3.5-3.5-5-9-7-25-4-9-17-63 40.5-.5 2.5-1zM384.5 680l.5 9.5-2 9-6 13-17 21.5q-3 1.3-2-2.5l8-10.5q2.7 1.1 2-1.5 15.5-12 16.5-38.5ZM590.5 687l.5 13.5h-1zM324.5 693l.5 2 3 .5-2 5 .5 1.5-2.5-4q2.7 1.1 2-1.5-3-1-1.5-3.5ZM515.5 706l.5 2.5h-1zM516.5 710l6.5 22.5h-1l-6-19z" opacity=".992"/><path fill="#091f3b" stroke="#091f3b" d="m591.5 713 .5 14.5h-1zM341.5 718l-1 2zM350.5 719l.5 1.5q-1.2 2.8-2.5.5l-4 1v-1l4-1 1.5.5zM348.5 724l1 2q-2.8.7-1-2ZM592.5 730l.5 4.5h-1zM347.5 734l1 2zM359 735q5.2 2.2 15.5 1l4-1 1 1 25.5.5-46 .5zM455.5 740l-3 4-2.5-.5zM114.5 744l2 3zM447.5 745l-1 2-5 3 2-3zM108.5 747l10 11q17.4 13.1 40 21l27 7 12.5 1.5-3 10-2.5 3.5h-7l-9.5 6.5-4 8v5l10 13-3 8.5h-5.5l-17-4q-5.4-3.6-14-4l-12.5-5.5v-31l-1.5-.5-18-11L89 766.5l-1.5-2.5q-3 .7-1.5-3zM360.5 748l3.5 4.5-3.5-2.5-1.5-.5zM438.5 750l1.5.5-4.5 2.5 1-2zM123.5 753l1 2zM128.5 757l1 2zM424.5 757l1.5.5-7.5 4.5-11 3v-1z" opacity=".992"/><path fill="#091f3b" stroke="#091f3b" d="m80.5 765 6.5 5.5 7.5 8.5q13.7 12.3 30.5 21.5v26l-1.5.5Q92.2 813.8 71 790.5l-9-13zM404.5 765l1.5.5-3.5 1.5v-1zM508.5 765l.5 1.5-10 14.5-22.5 16-41 19-45 15-8 1-20 6H357l-6-51.5h1l2 16 4 13v4l-1 3v2l1 7.5h5.5l35-9 48-17 40-20q10.8-6.2 18.5-15.5zM394.5 768l2.5.5-2.5.5zM41.5 775l1.5 3.5h-1z" opacity=".992"/><path fill="#091f3b" stroke="#091f3b" d="M43.5 780q9.9 17.1 24 30 14.2 13.8 33 23l14 7 31 11h4l8 3 14 2 5 2 13 1 7 2 56.5 4.5-29 1 4 1-13.5.5-1-1h-11l-1-1-21-2-3-2-15-4-15-2-3-2-7-1-6-3-9-2-29-15L72 818q1.1-2.7-1.5-2L50 793.5zm99.5 71v1h2zm8 2v1h2zm4 1 2 2 8 2h2l-1-2zm17 5v1h2zm12 2v1l4 1h5q-3-3-9-2ZM345.5 784l.5 2.5-2-1z" opacity=".992"/><path fill="#091f3b" stroke="#091f3b" d="m323 787 4.5 1 1.5-.5q-3.5 1.5-2 8l1 2v2q-1 8 1.5 12.5l2-4 2 3 4-3v1q-2.2-.7-1.5 1.5h2q.8 2.3-1.5 1.5l-2-1 .5 1.5q-.7 2.3 1.5 1.5l1.5-.5q.8 2.6-2.5 1.5v1l2 1 2.5-1 .5 2 .5-3.5-2-3 3-1.5 3.5 5q2.3-.7 1.5-4.5-2.2-1.2-1-6l1-2-1-1-1-13h1l1 11 2 7 2 23 2 9.5-18.5 4-21 2-1 1h-9l-1 1-20 1-1 1h-54l-1-1h-11l-1-1h-9l-1-1h-8l-12.5-2v-4.5l3.5-6.5 4 1q9.3-1.7 13.5-8.5l1-3.5 11.5 2h15l1 1h57l1-1 26-1 5.5-2 2-3.5v-4l-1-1v-22zm21 29 1 2h1z" opacity=".992"/><path fill="#091f3b" stroke="#091f3b" d="m203.5 788 10 2 27 1 1 1h36l1-1 29-1 11.5-2 1 29-2.5 1-25 1-1 1h-60l-1-1h-16l-6.5-1q-.4-9.3-6.5-14l-3.5-2.5zM330.5 803l1.5 3.5-2 .5zM186.5 807h6l7.5 6.5 1 4-1 4-4.5 4.5-9 1-5.5-4.5q-2.7-2.3-2-8l5.5-6.5zM549 810q3-1.2 2 2.5l-2-1zM255.5 865l2.5.5-2.5.5zM229.5 867l2.5.5-2.5.5zM233.5 867l1 1 11.5.5-13 .5zM248.5 868l2.5.5-2.5.5zM253.5 868l12.5.5-12.5.5z" opacity=".992"/><path fill="#103967" stroke="#103967" d="m579.5 15-2.5 3.5-8.5 9.5 5.5-6.5zM584.5 27l4.5 2.5 13 31 12 42-2 1v-2l-16-50-7-19-3.5-4.5zM567.5 29l-3.5 4.5q-25.3 28.7-46 62l-10 19-6 17q-13.5 14-22 33l-4 10-3.5 14.5-.5-3.5 3-11 9-20 16-22 6-16 14-26q21.2-33.3 47.5-61.5ZM692.5 44l-1 2-59 47 .5-1.5q-.8-2.6 2.5-1.5l36-30 5.5-3q-1.1-2.7 1.5-2zM691.5 78l.5 2.5h-1zM689.5 89l.5 2.5h-1zM490.5 115l-.5 1.5-1.5 3.5-.5-1.5zM486.5 123l.5 1.5-2 1zM571.5 124l-2 3zM567.5 127l-1 2zM563.5 130l-1 2zM469 149q2.7-1.1 2 1.5l-10 19-6.5 19.5-.5-1.5 6-20zM662.5 162l4.5.5-4.5.5zM677.5 162l5.5 1.5-1.5.5-4-1zM658.5 163l2.5.5-2.5.5zM684.5 164l7.5 6.5-6.5-5.5zM648.5 166l1.5.5-5 1.5v2q-2.7-1.1-2 1.5l-1.5-.5-1.5-.5zM673.5 169q3.8-1.2 2.5 2.5l1 1V195l-2-.5 1-1v-15h-1l-1.5 10.5-1.5-6.5v-12zM691.5 178l7 16 1-2 3.5 8.5-1.5-.5q-2.3-3.7-8.5-3.5l.5-1.5-4-2-1.5.5q3.3-4.7 2-14zm1.5 6-1 2 2 1zM696.5 181l.5 2.5h-1z" opacity=".996"/><path fill="#103967" stroke="#103967" d="m697.5 185 1.5 5.5h-1zM471.5 190l.5 3.5h-1zM470.5 195l.5 3.5h-1zM469.5 200l.5 3.5h-1zM450.5 203l.5 3.5h-1zM468.5 205l.5 4.5-3.5 12.5-.5-1.5 2-5zM521.5 208l17 1 10.5 9.5 1 3-1.5-.5-11-10h-17l-12 13-2 1-11-2-16.5-.5 27.5-.5zM522.5 217l-12 13z" opacity=".996"/><path fill="#103967" stroke="#103967" d="M534.5 217q7.1.8 9.5 6.5l4 6.5 11 .5-11.5.5-6.5-10h-2q1.1-2.7-1.5-2l-3-1zM729.5 221l8 9zM470.5 222l2.5.5-2.5.5zM576.5 228h49l1 1 3-1 19 1h15l8.5 1.5-1.5 1.5h-12l-1-1-33-1-1-1h-47l-1 1h-14v-1h14zM444.5 230l.5 1.5-3.5 7.5-.5-1.5zM739.5 230l1.5 2.5h-1zM462 231l16 .5-15 .5-5 14.5-7 10v2l11 8-2.5-1.5-9.5-6.5 9-18zM440.5 240l.5 1.5-2 1zM655.5 243l11.5.5-7.5 2.5-21 2-1 1h-8l-16 3v-1l15-3 15-1zM434.5 251l-1 2zM596.5 251l3.5.5-3.5.5zM607.5 252l3.5.5-3.5.5zM736.5 252l-1 2zM602.5 253l3.5.5-3.5.5zM598.5 254l2.5.5-2.5.5zM673.5 254l.5 2-10.5 3 1-2h3zM593.5 255l2.5.5-2.5.5zM734.5 255l-4 5-2 1 1-2zM587.5 256l3.5.5-3.5.5zM582.5 257l3.5.5-3.5.5zM578.5 258l2.5.5-2.5.5zM574.5 259l2.5.5-2.5.5zM569.5 260l3.5.5-6.5 1.5v-1zM656.5 260l2.5.5-8.5 2.5v-1zM543.5 261l-.5 1.5q-.7 3.8 1.5 4.5l2.5.5-2.5.5-2.5-1q-1.2-4.6 1.5-6ZM562.5 262l2.5.5-2.5.5zM722.5 262l.5 2 3 .5-2.5 3.5.5-1.5-1.5-2.5-1.5-.5zM558.5 263l2.5.5-2.5.5zM646.5 263l2.5.5-10.5 3.5v-1zM551.5 265l2.5.5-2.5.5zM441 266h2.5q16.7 14.2 36.5 24l-.5 2-23-16-14.5-8q-4.6 10.3-14.5 17l-13.5 9 3.5 5 18 16 4 1 3-1 7 4 21 20 1-1h10v1h-7l-5.5 1.5.5 1.5h-2l-6.5-5v-2q-2.7 1.1-2-1.5l-5.5-6.5 3.5 2q-1.1 2.7 1.5 2l8 7-15-16-5-3v2l-2-2q-6 1.5-7.5-1.5l.5-1.5-4-1-6.5-5-6.5-8-8.5-7.5q-.7-2.2 1.5-1.5 14.3-9.7 25.5-22.5zM463.5 267l5.5 4.5-2.5-1.5zM631.5 268l2.5.5-8.5 2.5v-1zM622.5 271l1.5.5-6.5 2.5v-1zM470.5 272l13 10q8.5-9 27-8 13.2 2.8 20.5 11.5l6 9 2 11-1.5 6.5-1-4-.5 4-2-.5q2.8-1.7 1-8l-2-6 .5-1.5q-2.2.8-1.5-1.5l-7.5-10.5-9-6-15-1-17 9-11.5-8.5 1.5-.5 6 4-3-4q-5-1.5-6-5ZM720.5 272l-4 5q-6.5 6.5-19 7v-1q15.3-1.7 23-11ZM468.5 274l2.5 1.5-1.5-.5zM614.5 274l1.5.5-8.5 3.5v-1zM604.5 278l1.5.5-3.5 1.5v-1zM599.5 280l1.5.5-5.5 2.5v-1zM580.5 283l-.5 1.5 1.5 3.5 3-1v1l-4 1q-2.2-.7-1.5-4.5zM592.5 283l1.5.5-5.5 2.5v-1zM691.5 284l4.5.5-4.5.5zM683.5 285l4.5.5q-4.9 2.6-13.5 1.5v-1h8z" opacity=".996"/><path fill="#103967" stroke="#103967" d="m508.5 286 2.5.5-2.5.5zM495.5 287l1.5.5-5 2.5q1.1 2.7-1.5 2l-6.5 8.5-1 8 2 2q-1 6 2 8l-2-1q-4.2-4.8-3-15l6-10.5zM667.5 287l4.5.5-4.5.5zM514.5 288l2.5 1.5-1.5-.5zM660.5 289l1.5.5-8 5-4.5 8.5-.5-1.5q2.3-6.7 7.5-10.5zM518.5 290q5.7 3.3 7.5 10.5h-1q-2.1-7.2-6.5-10.5ZM477.5 294l.5 1.5-2.5 5.5-.5-2.5zM402.5 298q4-.5 4.5 2.5l-1.5-.5-13 6-14 3-1.5 1.5 46.5 43.5 1-1h8l6.5 4.5 1 2-3-2q.8-2.2-1.5-1.5l-7-2-7 2q1.7-2-2-4l-6.5-4.5q1.1-3.3-1.5-2.5l-3-4-2.5-1.5-1.5-2.5-23-22-7.5-4.5 5.5-3.5 6-1zM474.5 302l.5 7.5h-1zM526.5 303l.5 7.5q-2.5 9-9.5 13.5l5.5-6.5q3.9-5.1 3.5-14.5ZM364.5 312h3.5q-1.1 2.7 1.5 2l1 2-3-1 1 2h1.5v2q2.7-1.1 2 1.5l8 7q-1.2 2.8-2.5.5l-3.5-.5.5-1.5-9 1-1.5-.5 2 5-2.5 1.5q-1.5-2.5-3 1l-3 2-2 1-2-3-.5 2.5.5 1.5-4.5-2 1 2.5-1.5 2.5 3-2 .5 2-2 .5.5 1.5q-1.2-2.2-2.5.5l2 4-3 1 1 4-3 8 2 4.5-4 .5 2 .5v2h-3q1.1 2.7-1.5 2l-2-1q-1.1 2.7-4.5 2 1.5 3.8-1.5 3h-2q-2.2-.7-1.5 1.5l-1.5 1.5-8.5 1.5 30 2-43.5.5q-15.7 4.3-24.5 15.5L270.5 412h-24l-1-1H242v-2q-2.7 1.1-2-1.5l-9.5-9.5H229v-1.5l-9.5-9.5-2.5-1.5 3.5-4.5q27.3-24.7 63-41l17-6 12-6 13-3 6-3 13-3 3-2h4zm-9.5 6-2 2h2v1l-3-1h-2l-8 2q-4 2 1 4 2 1 1-1h1q-1 3 2 2l1 3q3 1 2-2l2-1-1 2q3 1 2-2h2l-2-3 4-2zm-11 30v3h1q1-4-1-3Zm0 10-2 2h3zM535 317l10.5 5 34 25h17l34.5 30.5 1 2-3.5 2.5-5-6q-2.6.7-1.5-2h-2v-1.5l-4.5-4.5q-1.2 2.3-2.5-.5l1-1-3.5-3.5-1 1-3-3-4.5-3.5q.8-2.2-1.5-1.5l-6-5h-17l-2-1-38.5-28v-3q-3 1-2-2ZM490.5 322l1 2z" opacity=".996"/><path fill="#103967" stroke="#103967" d="m346.5 324 2.5.5q-2.1 3.3-2.5-.5ZM493.5 324l2.5 1.5-1.5.5zM526.5 326l-1 2zM371.5 327l1 2zM353.5 340l1 2q-2.8.7-1-2ZM485.5 341l2.5.5-2.5.5zM14.5 357l.5 2.5h-1zM440.5 361l.5 2.5h-1zM440.5 367l.5 2.5-7 5.5v47.5l12.5 12.5 23.5 22.5 1 2v72l1 1-1 4 1 2v28l1 2v2q-.8 2.6 2.5 1.5l3-2 5 4 .5-3 2.5 1 1.5-.5.5 3.5 1.5-5.5-1-5 1-1v-71l1-1v-94l8.5-10.5.5 1.5-8 10v20l1 4-1 4 1 2v2q1.3 4.7-1 6l1 2-1 1v57l-1 1v2l1 2v20l-1 1v164l4.5 6.5 15 1 1.5 1.5 7 29 4 9v8l-2-1-8.5-13.5-13-8-8-2h-15l-17 5-23 14-7.5 2-6.5-8-14-6-22-1-5.5 1v-2.5l8-12 3-9 2-10v-17l-4-16-13-27 1.5-.5 7.5 11.5v3l13 34q2.5 8 8.5 12.5l9 3h23l2-1 3 1 1-1h23q8.2-3.3 12.5-10.5l2-6v-5l-26-70-5-10 17-16v-8l1-1v-32l-1-2v-39l1-2q-2.3-1.3-1-6l1-1v-9l-1-1v-14l-4.5-6.5-3.5-1.5-1-3.5h-2v-2h-2v-2q-2.7 1.1-2-1.5-7.9-11.1-20-18l-1-2v-11l-1-1-1-35 9-6.5zM455 591l3 12 2 1q1-5-2-5l1-2q-3-2-1-4zm6 17 1 3 1-2zm1 3 2 6q-1 2 2 1l-2-4q1-4-2-3Zm4 8v4h1zM350.5 381q16.3 4.1 24.5 16.5l8 15 23 59h-1l-21-54-9.5-18.5-1.5.5 1-1-3-3-5.5-6.5q-5.2-5.8-15-7zM210.5 391l1.5 2.5h-2v2.5q2.7-1.1 2 1.5l3.5 2.5.5-2 3 1.5q-.7 2.3 1.5 1.5l4.5 3.5q-.7 2.3 1.5 1.5l7 8-14-1-1-1-3 1h-2l-9-1h-2l-4 1-2-1-5 1v-1l2.5-1.5 6.5-8.5q2.3.8 1.5-1.5z" opacity=".996"/><path fill="#103967" stroke="#103967" d="m213.5 394 1.5 3q-3.5 1.1-1.5-3ZM185.5 397l-2 3zM6.5 402l.5 4.5H6zM176.5 408l-2 3zM5.5 409l.5 6.5H5zM172.5 413l-3 4zM4.5 418l.5 10.5-1 1v49l1 1v12l1 1v8l2 7 2 21q3.8 7.7 4 19l3 6 1 8h-1l-5-16-3-20-2-2 1-3-2-5-1-15-1-1v-10l-1-1v-62zM168.5 418l-2.5 3.5-14 21-3 8-3 3-8 15-2 6.5-2 .5q2.5 1.5-1 3l-1 7.5-2.5-1-2 3 .5-1.5 3-6V477q2.7 1.1 2-1.5l3-4 6-17 13-21 7-8-2-1 5-3 1.5-2.5zM652.5 418l-.5 1.5-.5 1.5-.5-1.5zM264.5 420l2.5 1q-5.7 18.5-15 34.5l-1 5-13 27-3 10-6.5 11.5q-4.6 1.4-2.5-4.5l-2-6 1-2-4-3q-1.1-3.3 1.5-2.5l1.5-2.5-1-3 .5-1.5q-2.2-.7-1.5 1.5l-2-1 2-.5 3-5.5-3.5-5.5-2 1v-1l1.5-.5-2-3 .5-1.5-3 2 .5-1.5q-.6-4.6 2-6l-1-2.5-3-.5 5-3.5-.5-2-2 1 1-2q2.6.7 1.5-2l-4 1 1.5-3 2 1-1.5-2.5.5-5.5 2.5 1-2-4.5 1-2-1-2 2.5-3.5 3 2 .5-2-4-2.5 1.5-.5 2.5 1 2-5-5-.5 6.5-1.5 3 1 14-1 1-1h17zm-35.5 6-2 2h2zm-7 7-2 2h2zm-2 30-2 3h2zm2 8v1h2zM629.5 420l6.5.5-6.5.5zM629.5 427l.5 9.5-24 24-.5 43.5-.5-43.5 24-24zM214.5 440l2.5 1.5q-.7 2.3-4.5 1.5v-1q2.5.7 2-2ZM616.5 441l-2 3zM214.5 448l-1 2-1.5-.5z" opacity=".996"/><path fill="#103967" stroke="#103967" d="m605.5 451-.5 1.5q.8 2.3-1.5 1.5l-3.5 3.5v45l-6.5 7.5q-2.2-.7-1.5 1.5l-7 5.5-7.5 9-1.5-.5 22-21 1-2v-45zM212.5 459l1 2q-2.8.7-1-2ZM215.5 461l1.5 2.5-5 2.5q-1.1-3.3 3-2zM319 468q3.7-1.5 3 1.5l5 10 22 64 4 8 2 9.5-6.5 1-1-1h-55q-1.5 2.5-7 1l-2.5-1zM638.5 469l.5 1.5-1.5 2.5-.5-1.5zM406.5 473 450 583l7-5.5 2-3 3-4-1-2 1-5-1-2 1-1v-18l1-1 .5-36.5.5 67.5-7.5 8.5q-2.2-.7-1.5 1.5l-4.5 3.5-3.5-5.5-3-11-34-84zM635.5 476l.5 1.5-7.5 13.5.5-1.5zM126.5 490q2.8 1.3.5 2.5v3l-5.5 14.5-1.5-.5 1 5-3 6-6.5 24.5-.5-4.5 5-21 2.5-5.5 1.5.5-1-5 1.5-3.5 1.5.5q.7-9.8 4.5-16.5ZM565.5 492l.5 12.5 1 1V526l7 .5-6.5.5-2.5-1 1-3.5v-2l-1-4zM627.5 492l-.5 1.5-.5 1.5-.5-1.5zM625.5 496l-.5 1.5-23.5 40.5-.5-1.5zM603.5 507l-23 24zM222 519l2 .5-1.5 2.5zM623.5 530l.5 1.5-2 1zM566.5 532l.5 1.5-1 1v63l1 3-1 2 1 3-1 3 1 1v9l-1 2q2.3 1.3 1 6v2l.5 48.5.5-9.5 1-1-1-2 2-3-.5-1.5 2-1 .5 1.5-1 4 3 1 1.5 4.5 2-1 4 3q1.3-2.2 2.5.5l-2 4 1.5 2.5-1.5.5 3.5 1.5v-2l2 4 1.5-3.5v-48l1-1 .5-26.5.5 34.5-1 1v46l1 1-1 1v13l1 1v26q2.5 1.5 1 7l2 4v5l-.5 1.5 3 2 4 3 22.5.5-2 1 3.5 1.5h2l7.5 4 2.5 4q2.3-.7 1.5 1.5l2 3 2 15-2.5 4.5-.5-1.5q2.3-1.2 1-6l-2 1-2 8.5-7.5 4h-58l-9-3-5.5-5.5-7-17-16-53-7-19.5h25.5l9.5-7.5 4-7 1-12-1-1v-132zm5.5 135-1 3h2q1-4-1-3ZM600.5 539l.5 1.5-2.5 6.5-.5-2.5zM110.5 546l.5 2.5h-1zM597.5 548l.5 2.5h-1z" opacity=".996"/><path fill="#103967" stroke="#103967" d="m451.5 550 2 3-2.5-1zM596.5 552l.5 3.5h-1zM164.5 553l1.5 2.5-2-1zM209.5 554l.5 2-2.5 1-.5-2zM595.5 558l.5 3.5h-1zM18.5 563l4.5 14.5h-1l-4-12zM594.5 564l.5 3.5h-1zM159.5 569l2.5 4.5-2.5-1.5-35.5-.5 8.5-.5 1-1h24l1.5.5zM163.5 569l1 1h39l1.5 1.5-.5 1.5-.5-2h-39.5zM593.5 570l.5 5.5h-1zM163.5 574l2.5.5-2.5.5zM592.5 578l.5 6.5h-1zM24.5 582l1.5 3.5h-1zM591.5 587l.5 15.5h-1zM27.5 590l1.5 3.5h-1zM29.5 595q13.6 35.4 34.5 63.5l-3-2-18-29-12-25zM102.5 604l.5 2.5h-1zM273.5 630l2 1 3-1 3 1 1-1h85v2q2.3-.7 1.5 1.5 10.5 15 15 36v2q-1.7 6.3 1 8l-1 1-1 14-3 8-12 17.5q-2.7-1.1-2 1.5l-8 9v2.5q2.7-1.1 2 1.5l-1 2.5h48.5l11.5 6.5-1 2.5h-4.5l-13 5-7 1-22 7h-2l-6 1q-1.5-2.5-3 1l-4 1-16.5-17.5V743l-3-1.5 1.5-.5 4.5 2q-1.1 2.7 1.5 2l4 5q2.3-.7 1.5 1.5 4.8 1.4 4 6.5h5q-1.7-4.1 2.5-3v-1q-3.3 1.1-2.5-1.5l-2-3.5h-4v-1.5l1.5.5 3 1 4.5-2.5-4-1 3-1.5-.5-3-1 2-2.5-1-.5 3-3.5-2.5-1.5 3.5-.5-1.5 1-2h-2q-.7-2.6 2-1.5v-2l-4.5-2-1.5.5V735q-2.7 1.1-2-1.5v-2l1-2-1.5-.5-1.5.5q.7-2.6-2-1.5v-4q4.1 1.3 3-2l-4 1.5-1.5 2.5-.5-2.5 1-2-2-.5q1.5-3.8-1.5-3l.5-1.5 1-3-1.5.5q-2.6-.7-1.5 2h-2l1-2.5-1.5-.5-1.5.5 1-2-1-2.5-2-.5v-4q.8-2.2-1.5-1.5l-5.5-4.5 1.5.5q2.3.8 1.5-1.5l.5-1.5-2.5-.5q2.3-1.2-.5-2.5l-2 1-2.5-1.5 1.5-.5 2.5 1-1.5-5-3 2-.5-1.5 1-2.5h-2q1.1-2.7-1.5-2l.5 1.5q.8 2.3-1.5 1.5l-2.5-3.5 1-1-3-3-.5-2.5-2.5 1-.5-3-2 1-2.5-4.5q2.3-1.2-.5-2.5l-2 5q-2.7-1.2-.5-2.5l-.5-2.5-.5 2-3.5 1 1-2q3 .9 1.5-3.5l-2-3.5q-2.7-1.1-2 1.5l2.5 3.5-3.5-2.5-2-3h2l-2-3-2 1 .5 1.5q-2.6.8-1.5-2.5l-6-5-2-3 1-3.5-3 .5 1 3-3.5-2.5-1.5-.5 4-2-5-1 5-1-5-2 3-4.5q-2.7-1.1-2 1.5l-2-1q.8-2.2-1.5-1.5v2l-3 1-4-2-4.5 2 3.5-9h14zm-11.5 6v2q2 3 3 0zm10 5v1h2zm12 15-1 2h3zm42 39 1 3 1-2zm-2 3v2l2 1q1-4-2-3Zm15 20-1 3h1zm8 2-2 1v1l4-1zm-4 4v2l2-1zm6 0q-2 3 1 2zm12 24-2 2h2l1 1z" opacity=".996"/><path fill="#103967" stroke="#103967" d="M254 641q3-1 2 2-3 1-2-2ZM281.5 659l1 2q-2.8.7-1-2ZM68.5 660l1.5.5-9 8 1 3-7.5 10.5.5-1.5 2-4.5q-2.7-1.1-2 1.5l-4 3q7.3-11.7 17.5-20.5ZM61 670l-3 4 3-2zM584.5 666l-.5 1.5q1 3.8-2 2.5-1.5-3.7 1.5-3zM50.5 682l-.5 1.5-1.5 2.5.5-1.5zM47.5 687l.5 1.5-2 1zM311.5 688l2.5 1.5-1.5.5zM117.5 695l.5 1.5-2.5 3.5.5-1.5-.5-1.5-10 11 .5-1.5 9.5-10.5zM114.5 701l-2 3zM40.5 704l.5 2.5h-1zM324 704q3-1 2 2-3 1-2-2ZM110.5 707l-.5 1.5-.5 1.5-.5-1.5zM39.5 708l1 4 1-2 .5 5.5-1 1V733q-3.3-1.3-2 3.5h-1q-2.6-5.9-1-16l1.5-7.5 1 4 .5-4.5zM104.5 709l-.5 1.5-1.5 3.5-.5-1.5zM101.5 715l.5 2.5h-1zM106.5 718l.5 9.5h-1zM100.5 719l.5 4.5h-1zM321.5 724l8.5 4.5q-2.2 4.8-4.5.5l-2.5-1.5zM100.5 729l3.5 11.5 2 2-3-2-3-7zM107.5 730l4.5 10.5-2-1-3-7zM469.5 732l2.5.5-31.5 20.5-45.5 20.5 2.5.5q1.3-2.2 6-1h2l5 5 4.5 2 1.5 3q2.1 3.4 7.5 3.5l-.5 1.5 1.5.5q-2.2 1.2.5 2.5h1.5q-1.5 3.8 1.5 3l3.5 3.5v2l-.5 2.5q-1.2-2.2-2.5.5l2 1-1 2.5q-2.7-1.1-2 1.5l.5 1.5-1.5-.5-2 3 3.5.5 22-9v1l-24 10-28 9-35 9H358l-1-7.5v-2l1-7-3-8-2-16-2-6 .5-1.5q-2.2.8-1.5-1.5l-1-2.5 12.5-3 2 1 2-2 13-2q7-4.5 18-5l5-3 2 1 3-2h4q2-3.5 8-3l5.5-3.5-.5-1.5 2.5 1q-1.1-2.7 1.5-2l12.5-5.5.5-1.5h2l7-5h3l5-5 1.5.5 1.5-2.5zM417 784l1 2h1zm4 29-2 1v1l4-1zM112.5 742l1 2zM33.5 744l.5 3.5h-1zM115.5 746l8 9zM109.5 748l9 10zM34.5 751l.5 2.5h-1zM125.5 755l2 3zM35.5 756l9.5 23.5Q56 798 71.5 812q23.4 20.1 55.5 31.5l-1.5.5-11-4-31-17L61 803.5 46.5 785l-1.5.5 1-2h-2l1-2h-2l.5-1.5-1.5-.5 1-2h-2l1-2h-2l-3-7zM511.5 757l.5 1.5q-5.4 12.6-15.5 20.5l-14 9 1-2q11.8-5.2 19.5-14.5 6-5.5 8.5-14.5ZM120.5 758l2 3zM130.5 759l1 2zM127.5 763l1 2zM520.5 763l.5 2-2-.5zM141.5 771l3.5 1.5-1.5.5zM642.5 775l.5 2.5h-1zM168.5 776l2.5.5-2.5.5zM649.5 779l.5 2.5h-1zM340.5 781h5.5v2.5l-2 2q3.5 1.5 1 3l2 15q-2.2 1.3-1 6l1 4v2l-1 2 .5 1.5-3.5-2.5 1.5-.5 1.5.5-4-6.5-3 1.5q2.6 1.4 2 6h-1q.8-2.2-1.5-1.5h-2l-1.5-.5 3-.5-.5-2-2.5 1-3.5-6-2 4-2.5-13.5 1-2q-2.5-1.5-1-7 2.3-1.2-.5-2.5-5.2 1.5-3.5-3l11.5-1zm-9.5 22-1 4h2zm5 6-2 2h2zm2 1-2 2h2zM185.5 785l2.5.5-2.5.5zM213.5 785l2.5.5-2.5.5zM310.5 785h8.5v3l-2.5 1-18 1-1 1h-16v-1h13l1-1h9l6.5-1.5-9.5-.5-1 1h-21v-1h20zm4.5 1v1h3zM190.5 786l3.5.5-3.5.5zM222.5 786l4.5.5-4.5.5zM648.5 786l.5 1.5-4 8.5-5.5 4 4.5-5.5zM654.5 786l.5 1.5q-4.4 10.1-12.5 16.5l-1.5-.5 7-6zM241.5 787l8.5.5-8.5.5zM206.5 788l3.5.5-3.5.5zM480.5 788l-1 2-4 2 1-2zM213.5 789l5.5.5-5.5.5zM223.5 790l11.5.5-11.5.5zM241.5 791l36.5.5-36.5.5zM471.5 793l-1 2-1.5-.5zM462.5 797l1.5.5-9.5 4.5v-1zM547.5 805l9 2 4.5 2.5-2 1 10.5.5 1 1h27l1 1q8.6-.7 13.5 1l-.5 2-1-1h-38l-3 1-1-1h-11l-3.5-2.5q.8-2.6-2.5-1.5l-3-2-5 3 1-2 2.5-1.5 1-2zM531.5 815l1.5.5-3.5 1.5v-1zM613.5 815l4.5.5-4.5.5zM520.5 818l2.5.5-2.5.5zM516.5 819l2.5.5-2.5.5zM507.5 821l2.5.5-2.5.5zM500.5 822l4.5.5-4.5.5zM456.5 823l2 1 26.5.5-30.5.5-17 9-18 6v-1q20.8-5.7 37-16ZM490.5 823l8.5.5-8.5.5zM82.5 825l1 2z" opacity=".996"/><path fill="#103967" stroke="#103967" d="m469.5 827 2.5.5-3 1.5zM89.5 830l1 2zM130.5 840l3.5 1.5-1.5.5zM416.5 840l1.5.5-24.5 8.5h-4l-4 2h-4l-25 7-18 2-6 2h-7l-1 1-22 2-1 1-24 1-1 1h-42l-3-1-7.5-.5 29-1-25-2 53.5-.5 1-1h14l1-1 17-1 1-1 27-3 22-5h6l16-4h7zM256 865v1h2zM128.5 844l10.5 3.5-3.5 1.5v-2l-7-2zM140.5 848l8.5 2.5-6.5 1.5v-1l2.5-.5q-5.2-.2-4.5-2.5ZM154.5 848l4.5.5-4.5.5zM150.5 851l2.5.5-2.5.5zM154.5 852l10.5 2.5-4 1 4.5.5 4-1v1l-3.5.5.5 1.5-12.5-3.5 3-1q-3.3.1-2.5-1.5Zm3.5 2v1h3zM150.5 853l2.5.5-2.5.5zM189.5 855l3.5.5-3.5.5zM285.5 855l3.5.5-3.5.5zM172.5 856l8.5 1.5-4.5.5-4-1zM197.5 856l3.5.5-3.5.5z" opacity=".996"/><path fill="#103967" stroke="#103967" d="m321.5 856 2.5.5-2.5.5zM182.5 858l5.5.5-5.5.5zM190.5 859l4.5.5-4.5.5zM225.5 859l6.5.5-6.5.5zM279.5 859l17.5.5-17.5.5zM196.5 860l17.5 1.5-9.5.5q-1.8-2.7-8-1z" opacity=".996"/><path fill="#103967" stroke="#103967" d="M183.5 861q6.8-1.3 9.5 1.5l-5.5.5-4-1zM215.5 862l11.5.5-11.5.5zM193.5 866l2.5.5-2.5.5z" opacity=".996"/></svg>